mtllib atlascover.mtl
o pin
v 0.030100 -1.003200 0.003200
v 0.030100 -1.003200 -0.003200
v 0.058800 -1.003100 -0.003100
v 0.058800 -1.003100 0.003100
v 0.070700 -1.010000 -0.010000
v 0.070700 -1.010000 0.010000
v 0.081700 -1.005200 -0.005200
v 0.081700 -1.005200 0.005200
v 0.030100 -0.996800 0.003200
v 0.058800 -0.996900 0.003100
v 0.058800 -0.996900 -0.003100
v 0.030100 -0.996800 -0.003200
v 0.070700 -0.990000 0.010000
v 0.070700 -0.990000 -0.010000
v 0.081700 -0.994800 0.005200
v 0.081700 -0.994800 -0.005200
vt 0.7524 0.9284
vt 0.7543 0.5918
vt 0.9553 0.6740
vt 0.9543 0.8485
vt 0.7549 0.5910
vt 0.9573 0.6735
vt 0.9565 0.8492
vt 0.7534 0.9299
vt 0.7544 0.5889
vt 0.9571 0.6709
vt 0.9567 0.8466
vt 0.7537 0.9278
vt 0.7581 0.3814
vt 0.9337 0.3814
vt 0.9337 0.5570
vt 0.7581 0.5570
vt 0.9541 0.8468
vt 0.7525 0.9277
vt 0.7528 0.5911
vt 0.9542 0.6723
vt 0.0387 0.8096
vt 0.0393 0.7026
vt 0.5223 0.7058
vt 0.5217 0.8118
vt 0.0352 0.7034
vt 0.5215 0.7061
vt 0.5210 0.8127
vt 0.0347 0.8111
vt 0.0350 0.7030
vt 0.5213 0.7045
vt 0.5211 0.8112
vt 0.0348 0.8107
vt 0.5213 0.8122
vt 0.5214 0.7062
vt 0.0382 0.8122
vt 0.0383 0.7053
vn 0.3999 -0.9165 0.0000
vn 0.3999 0.9165 0.0000
vn 0.3999 -0.0000 0.9165
vn 1.0000 0.0000 0.0000
vn 0.3999 0.0000 -0.9165
vn 0.0035 -1.0000 0.0000
vn -0.2580 -0.9661 0.0000
vn -0.5016 -0.8651 0.0000
vn 0.0035 1.0000 0.0000
vn -0.2580 0.9661 -0.0000
vn -0.5016 0.8651 0.0000
vn 0.0035 -0.0000 1.0000
vn -0.2580 0.0000 0.9661
vn -0.5016 -0.0000 0.8651
vn -0.5016 0.0000 -0.8651
vn -0.2580 0.0000 -0.9661
vn 0.0035 0.0000 -1.0000
usemtl pin
f 6/1/1 5/2/1 7/3/1 8/4/1
f 13/5/2 15/6/2 16/7/2 14/8/2
f 6/9/3 8/10/3 15/11/3 13/12/3
f 8/13/4 7/14/4 16/15/4 15/16/4
f 7/17/5 5/18/5 14/19/5 16/20/5
f 1/21/6 2/22/6 3/23/7 4/24/7
f 4/24/7 3/23/7 5/2/8 6/1/8
f 9/25/9 10/26/10 11/27/10 12/28/9
f 10/26/10 13/5/11 14/8/11 11/27/10
f 1/29/12 4/30/13 10/31/13 9/32/12
f 4/30/13 6/9/14 13/12/14 10/31/13
f 5/18/15 3/33/16 11/34/16 14/19/15
f 3/33/16 2/35/17 12/36/17 11/34/16
o atlascover
v 0.030400 -1.059400 -0.090000
v 0.030400 -1.000400 -0.090000
v 0.030400 -1.000400 -0.000500
v 0.030400 -1.059400 -0.000500
v 0.030400 -1.000400 1.000500
v 0.030400 -1.059400 1.000500
v 0.030400 -1.000400 1.090000
v 0.030400 -1.059400 1.090000
v 0.030400 0.000400 -0.090000
v 0.030400 0.000400 -0.000500
v 0.030400 0.000400 1.000500
v 0.030400 0.000400 1.090000
v 0.030400 0.059400 -0.090000
v 0.030400 0.059400 -0.000500
v 0.030400 0.059400 1.000500
v 0.030400 0.059400 1.090000
vt 1.0000 0.0519
vt 0.9999 0.1019
vt 0.9241 0.1019
vt 0.9241 0.0519
vt 0.0761 0.1018
vt 0.0761 0.0519
vt 0.0002 0.1018
vt 0.0002 0.0519
vt 0.9999 0.9499
vt 0.9240 0.9499
vt 0.0759 0.9498
vt 0.0001 0.9498
vt 0.9999 0.9998
vt 0.9240 0.9998
vt 0.0759 0.9998
vt 0.0001 0.9998
vn 1.0000 0.0000 0.0000
usemtl face
f 17/37/18 18/38/18 19/39/18 20/40/18
f 20/40/18 19/39/18 21/41/18 22/42/18
f 22/42/18 21/41/18 23/43/18 24/44/18
f 18/38/18 25/45/18 26/46/18 19/39/18
f 21/41/18 27/47/18 28/48/18 23/43/18
f 25/45/18 29/49/18 30/50/18 26/46/18
f 26/46/18 30/50/18 31/51/18 27/47/18
f 27/47/18 31/51/18 32/52/18 28/48/18
