mtllib maptool.mtl
o tool
v 0.173300 0.005500 0.585800
v 0.168300 0.005500 0.575500
v 0.213300 0.005500 0.553600
v 0.227900 0.005500 0.583500
v 0.153700 0.005500 0.545600
v 0.198600 0.005500 0.523600
v 0.148700 0.005500 0.535300
v 0.184000 0.005500 0.493700
v 0.173300 0.023100 0.585800
v 0.227900 0.023100 0.583500
v 0.213300 0.023100 0.553600
v 0.168300 0.023100 0.575500
v 0.198600 0.023100 0.523600
v 0.153700 0.023100 0.545600
v 0.184000 0.023100 0.493700
v 0.148700 0.023100 0.535300
v 0.712100 0.005500 0.321800
v 0.707400 0.005500 0.312100
v 0.707400 0.023100 0.312100
v 0.712100 0.023100 0.321800
v 0.692900 0.005500 0.282300
v 0.688100 0.005500 0.272500
v 0.688100 0.023100 0.272500
v 0.692900 0.023100 0.282300
v 0.578300 0.005500 0.375200
v 0.593000 0.005500 0.405100
v 0.578300 0.023100 0.375200
v 0.593000 0.023100 0.405100
v 0.549100 0.005500 0.315300
v 0.563800 0.005500 0.345400
v 0.549100 0.023100 0.315300
v 0.563800 0.023100 0.345400
v 0.821400 0.015200 0.242500
v 0.821400 0.013500 0.242500
v 0.817900 0.013500 0.235300
v 0.817900 0.015200 0.235300
v 0.724600 0.009300 0.295500
v 0.724600 0.019400 0.295500
v 0.716600 0.009300 0.279200
v 0.716600 0.019400 0.279200
v 0.146500 0.022200 0.474300
v 0.150800 0.022200 0.463700
v 0.197200 0.022200 0.482400
v 0.184700 0.022200 0.513400
v 0.163200 0.022200 0.432800
v 0.209600 0.022200 0.451500
v 0.167500 0.022200 0.422200
v 0.222100 0.022200 0.420600
v 0.146500 0.039900 0.474300
v 0.184700 0.039900 0.513400
v 0.197200 0.039900 0.482400
v 0.150800 0.039900 0.463700
v 0.209600 0.039900 0.451500
v 0.163200 0.039900 0.432800
v 0.222100 0.039900 0.420600
v 0.167500 0.039900 0.422200
v 0.703200 0.022200 0.698000
v 0.707300 0.022200 0.688100
v 0.707300 0.039900 0.688100
v 0.703200 0.039900 0.698000
v 0.719700 0.022200 0.657300
v 0.723700 0.022200 0.647200
v 0.723700 0.039900 0.647200
v 0.719700 0.039900 0.657300
v 0.574000 0.022200 0.634400
v 0.561600 0.022200 0.665300
v 0.574000 0.039900 0.634400
v 0.561600 0.039900 0.665300
v 0.598900 0.022200 0.572500
v 0.586400 0.022200 0.603600
v 0.598900 0.039900 0.572500
v 0.586400 0.039900 0.603600
v 0.835300 0.031900 0.726200
v 0.835300 0.030200 0.726200
v 0.838300 0.030200 0.718800
v 0.838300 0.031900 0.718800
v 0.731100 0.026000 0.689700
v 0.731100 0.036100 0.689700
v 0.737900 0.026000 0.672800
v 0.737900 0.036100 0.672800
v 0.311000 -0.001300 0.474700
v 0.311000 -0.001300 0.524700
v 0.261000 -0.001300 0.524700
v 0.261000 -0.001300 0.474700
v 0.311000 0.048700 0.474700
v 0.261000 0.048700 0.474700
v 0.261000 0.048700 0.524700
v 0.311000 0.048700 0.524700
vt 0.006300 0.928900
vt 0.006200 0.910600
vt 0.086700 0.964000
vt 0.086600 0.910400
vt 0.006100 0.857000
vt 0.086500 0.856900
vt 0.006100 0.838600
vt 0.086400 0.803300
vt 0.005600 0.838600
vt 0.085900 0.803100
vt 0.005700 0.856900
vt 0.086100 0.856700
vt 0.005800 0.910500
vt 0.086200 0.910300
vt 0.005900 0.928900
vt 0.086300 0.963900
vt 0.016900 0.214100
vt 0.104700 0.214100
vt 0.016900 0.242500
vt 0.104700 0.242500
vt 0.821000 0.490400
vt 0.821100 0.413700
vt 0.947000 0.490500
vt 0.947100 0.413900
vt 0.652800 0.414300
vt 0.777800 0.414500
vt 0.652700 0.480500
vt 0.777700 0.480700
vt 0.821200 0.490800
vt 0.821800 0.413200
vt 0.946700 0.491800
vt 0.947300 0.414200
vt 0.101600 0.240900
vt 0.013800 0.240900
vt 0.101600 0.212600
vt 0.013800 0.212600
vt 0.979600 0.384300
vt 0.924500 0.384200
vt 0.979600 0.299200
vt 0.924600 0.299100
vt 0.763700 0.384100
vt 0.763800 0.299000
vt 0.708600 0.384000
vt 0.708700 0.298900
vt 0.739900 0.963000
vt 0.739800 0.909400
vt 0.000600 0.569600
vt 0.000600 0.526200
vt 0.999400 0.569600
vt 0.999400 0.526200
vt 0.739300 0.855200
vt 0.739200 0.801600
vt 0.754900 0.240900
vt 0.754900 0.212600
vt 0.739700 0.856100
vt 0.739700 0.802300
vt 0.739500 0.962400
vt 0.739400 0.908500
vt 0.001600 0.571200
vt 0.001500 0.527900
vt 0.999500 0.568900
vt 0.999400 0.525600
vt 0.970800 0.926300
vt 0.970800 0.909100
vt 0.970200 0.854600
vt 0.970200 0.837400
vt 0.988800 0.240900
vt 0.988800 0.212600
vt 0.970700 0.855800
vt 0.970700 0.838200
vt 0.970400 0.925500
vt 0.970400 0.907900
vt 0.777600 0.480800
vt 0.777600 0.414400
vt 0.652800 0.480900
vt 0.652700 0.414500
vt 0.724200 0.686900
vt 0.723900 0.672700
vt 0.792300 0.685600
vt 0.792000 0.671400
vt 0.339300 0.720100
vt 0.339500 0.636900
vt 0.451900 0.702700
vt 0.452100 0.655000
vt 0.336000 0.759300
vt 0.335200 0.603200
vt 0.444100 0.723900
vt 0.443700 0.638300
vt 0.452100 0.702700
vt 0.452300 0.655000
vt 0.335000 0.760300
vt 0.334000 0.604000
vt 0.443200 0.723900
vt 0.442600 0.638100
vt 0.972800 0.684500
vt 0.972800 0.676600
vt 0.963400 0.697300
vt 0.963200 0.659600
vt 0.963200 0.696600
vt 0.963000 0.658800
vt 0.305500 0.477800
vt 0.305500 0.275700
vt 0.507600 0.477800
vt 0.507600 0.275700
vt 0.032700 0.284600
vt 0.234800 0.284600
vt 0.032700 0.486600
vt 0.234800 0.486600
vn 0.000000 -1.000000 -0.000000
vn 0.000000 1.000000 0.000000
vn 0.041600 0.000000 0.999100
vn 0.041800 -0.000000 0.999100
vn 0.898500 0.000000 -0.439000
vn 0.898500 0.000000 -0.438900
vn 0.898500 -0.000000 -0.439100
vn -0.762800 -0.000000 -0.646600
vn -0.762900 0.000000 -0.646500
vn -0.898500 -0.000000 0.439000
vn -0.898400 -0.000000 0.439100
vn -0.439100 0.000000 -0.898400
vn -0.438700 0.000000 -0.898600
vn 0.439000 0.000000 0.898500
vn -0.439000 0.000000 -0.898500
vn 0.438500 0.000000 0.898700
vn 0.573400 0.000000 0.819300
vn 0.573100 0.000000 0.819500
vn -0.294300 0.000000 -0.955700
vn 0.695800 -0.000000 0.718300
vn 0.695800 0.000000 0.718200
vn 0.146700 -0.986600 -0.071700
vn 0.146800 -0.986600 -0.071700
vn -0.132500 -0.000000 -0.991200
vn 0.146600 0.986600 -0.071700
vn 0.146700 0.986600 -0.071700
vn 0.480000 0.000000 0.877300
vn 0.479800 -0.000000 0.877400
vn 0.034200 -0.999300 -0.016800
vn 0.034600 -0.999300 -0.016800
vn 0.034200 -0.999300 -0.016600
vn -0.397100 0.000000 -0.917800
vn -0.397200 -0.000000 -0.917700
vn -0.397000 0.000000 -0.917800
vn 0.034200 0.999300 -0.016800
vn 0.034500 0.999300 -0.016800
vn 0.034200 0.999300 -0.016700
vn 0.034200 0.999300 -0.016600
vn -0.715000 -0.000000 0.699200
vn -0.714800 -0.000000 0.699300
vn 0.927500 0.000000 0.373900
vn 0.927500 0.000000 0.373800
vn -0.030000 0.000000 -0.999600
vn -0.927500 -0.000000 -0.373900
vn -0.927400 0.000000 -0.374200
vn -0.927400 -0.000000 -0.374000
vn 0.374100 0.000000 -0.927400
vn -0.373800 0.000000 0.927500
vn 0.373900 0.000000 -0.927500
vn -0.374300 0.000000 0.927300
vn -0.225000 0.000000 0.974400
vn 0.513600 0.000000 -0.858000
vn -0.927600 0.000000 -0.373500
vn -0.068000 -0.000000 0.997700
vn -0.068100 0.000000 0.997700
vn 0.151400 -0.986600 0.061000
vn 0.648000 -0.000000 -0.761600
vn 0.647900 0.000000 -0.761700
vn 0.151400 0.986600 0.061000
vn 0.151500 0.986600 0.061000
vn -0.330600 0.000000 0.943800
vn 0.035300 -0.999300 0.014200
vn 0.035300 -0.999300 0.014300
vn 0.416500 0.000000 -0.909100
vn 0.035600 0.999300 0.014300
vn 0.035300 0.999300 0.014200
vn 0.035300 0.999300 0.014300
vn 0.000000 0.000000 1.000000
vn 1.000000 0.000000 0.000000
vn 0.000000 0.000000 -1.000000
vn -1.000000 0.000000 0.000000
usemtl tool
f 1/1/1 2/2/1 4/3/1
f 2/2/1 3/4/1 4/3/1
f 2/2/1 5/5/1 3/4/1
f 5/5/1 6/6/1 3/4/1
f 5/5/1 7/7/1 6/6/1
f 7/7/1 8/8/1 6/6/1
f 9/9/2 10/10/2 12/11/2
f 10/10/2 11/12/2 12/11/2
f 12/11/2 11/12/2 14/13/2
f 11/12/2 13/14/2 14/13/2
f 14/13/2 13/14/2 16/15/2
f 13/14/2 15/16/2 16/15/2
f 1/17/3 4/18/3 9/19/4
f 4/18/3 10/20/3 9/19/4
f 17/21/5 18/22/5 20/23/5
f 18/22/5 19/24/5 20/23/5
f 3/25/6 6/26/6 11/27/5
f 6/26/6 13/28/6 11/27/5
f 21/29/6 22/30/7 24/31/7
f 22/30/7 23/32/6 24/31/7
f 8/33/8 7/34/9 15/35/9
f 7/34/9 16/36/8 15/35/9
f 7/37/10 5/38/11 16/39/10
f 5/38/11 14/40/10 16/39/10
f 5/38/11 2/41/10 14/40/10
f 2/41/10 12/42/10 14/40/10
f 2/41/10 1/43/10 12/42/10
f 1/43/10 9/44/10 12/42/10
f 4/3/1 3/4/1 26/45/1
f 3/4/1 25/46/1 26/45/1
f 3/47/12 11/48/13 25/49/13
f 11/48/13 27/50/12 25/49/13
f 11/12/2 10/10/2 27/51/2
f 10/10/2 28/52/2 27/51/2
f 10/20/14 4/18/14 28/53/14
f 4/18/14 26/54/14 28/53/14
f 6/6/1 8/8/1 30/55/1
f 8/8/1 29/56/1 30/55/1
f 8/33/15 15/35/15 29/53/15
f 15/35/15 31/54/15 29/53/15
f 15/16/2 13/14/2 31/57/2
f 13/14/2 32/58/2 31/57/2
f 13/59/16 6/60/16 32/61/16
f 6/60/16 30/62/16 32/61/16
f 26/45/1 25/46/1 17/63/1
f 25/46/1 18/64/1 17/63/1
f 27/51/2 28/52/2 19/65/2
f 28/52/2 20/66/2 19/65/2
f 28/53/17 26/54/18 20/67/18
f 26/54/18 17/68/18 20/67/18
f 30/55/1 29/56/1 21/69/1
f 29/56/1 22/70/1 21/69/1
f 29/53/19 31/54/19 22/67/19
f 31/54/19 23/68/19 22/67/19
f 31/57/2 32/58/2 23/71/2
f 32/58/2 24/72/2 23/71/2
f 25/73/10 27/74/10 30/75/10
f 27/74/10 32/76/10 30/75/10
f 27/51/2 19/65/2 32/58/2
f 19/65/2 24/72/2 32/58/2
f 33/77/5 34/78/5 36/79/5
f 34/78/5 35/80/5 36/79/5
f 18/64/1 25/46/1 21/69/1
f 25/46/1 30/55/1 21/69/1
f 19/81/20 18/82/20 38/83/20
f 18/82/20 37/84/21 38/83/20
f 18/85/22 21/86/22 37/87/23
f 21/86/22 39/88/22 37/87/23
f 21/81/24 24/82/24 39/89/24
f 24/82/24 40/90/24 39/89/24
f 24/91/25 19/92/26 40/93/26
f 19/92/26 38/94/26 40/93/26
f 38/83/27 37/84/28 33/95/27
f 37/84/28 34/96/28 33/95/27
f 37/87/29 39/88/30 34/97/31
f 39/88/30 35/98/31 34/97/31
f 39/89/32 40/90/33 35/95/34
f 40/90/33 36/96/32 35/95/34
f 40/93/35 38/94/36 36/99/37
f 38/94/36 33/100/38 36/99/37
f 41/1/1 42/2/1 44/3/1
f 42/2/1 43/4/1 44/3/1
f 42/2/1 45/5/1 43/4/1
f 45/5/1 46/6/1 43/4/1
f 45/5/1 47/7/1 46/6/1
f 47/7/1 48/8/1 46/6/1
f 49/9/2 50/10/2 52/11/2
f 50/10/2 51/12/2 52/11/2
f 52/11/2 51/12/2 54/13/2
f 51/12/2 53/14/2 54/13/2
f 54/13/2 53/14/2 56/15/2
f 53/14/2 55/16/2 56/15/2
f 41/17/39 44/18/39 49/19/39
f 44/18/39 50/20/40 49/19/39
f 57/21/41 58/22/41 60/23/41
f 58/22/41 59/24/41 60/23/41
f 43/25/42 46/26/41 51/27/41
f 46/26/41 53/28/41 51/27/41
f 61/29/41 62/30/41 64/31/41
f 62/30/41 63/32/41 64/31/41
f 48/33/43 47/34/43 55/35/43
f 47/34/43 56/36/43 55/35/43
f 47/37/44 45/38/45 56/39/46
f 45/38/45 54/40/45 56/39/46
f 45/38/45 42/41/45 54/40/45
f 42/41/45 52/42/45 54/40/45
f 42/41/45 41/43/44 52/42/45
f 41/43/44 49/44/44 52/42/45
f 44/3/1 43/4/1 66/45/1
f 43/4/1 65/46/1 66/45/1
f 43/47/47 51/48/47 65/49/47
f 51/48/47 67/50/47 65/49/47
f 51/12/2 50/10/2 67/51/2
f 50/10/2 68/52/2 67/51/2
f 50/20/48 44/18/48 68/53/48
f 44/18/48 66/54/48 68/53/48
f 46/6/1 48/8/1 70/55/1
f 48/8/1 69/56/1 70/55/1
f 48/33/49 55/35/49 69/53/49
f 55/35/49 71/54/49 69/53/49
f 55/16/2 53/14/2 71/57/2
f 53/14/2 72/58/2 71/57/2
f 53/59/50 46/60/50 72/61/50
f 46/60/50 70/62/50 72/61/50
f 66/45/1 65/46/1 57/63/1
f 65/46/1 58/64/1 57/63/1
f 67/51/2 68/52/2 59/65/2
f 68/52/2 60/66/2 59/65/2
f 68/53/51 66/54/51 60/67/51
f 66/54/51 57/68/51 60/67/51
f 70/55/1 69/56/1 61/69/1
f 69/56/1 62/70/1 61/69/1
f 69/53/52 71/54/52 62/67/52
f 71/54/52 63/68/52 62/67/52
f 71/57/2 72/58/2 63/71/2
f 72/58/2 64/72/2 63/71/2
f 65/73/53 67/74/44 70/75/44
f 67/74/44 72/76/44 70/75/44
f 67/51/2 59/65/2 72/58/2
f 59/65/2 64/72/2 72/58/2
f 73/77/42 74/78/41 76/79/41
f 74/78/41 75/80/41 76/79/41
f 58/64/1 65/46/1 61/69/1
f 65/46/1 70/55/1 61/69/1
f 59/81/54 58/82/55 78/83/55
f 58/82/55 77/84/54 78/83/55
f 58/85/56 61/86/56 77/87/56
f 61/86/56 79/88/56 77/87/56
f 61/81/57 64/82/58 79/89/57
f 64/82/58 80/90/57 79/89/57
f 64/91/59 59/92/59 80/93/59
f 59/92/59 78/94/60 80/93/59
f 78/83/61 77/84/61 73/95/61
f 77/84/61 74/96/61 73/95/61
f 77/87/62 79/88/62 74/97/63
f 79/88/62 75/98/63 74/97/63
f 79/89/64 80/90/64 75/95/64
f 80/90/64 76/96/64 75/95/64
f 80/93/65 78/94/66 76/99/67
f 78/94/66 73/100/67 76/99/67
f 81/101/1 82/102/1 84/103/1
f 82/102/1 83/104/1 84/103/1
f 85/103/2 86/101/2 88/104/2
f 86/101/2 87/102/2 88/104/2
f 88/105/68 87/106/68 82/107/68
f 87/106/68 83/108/68 82/107/68
f 85/108/69 88/107/69 81/106/69
f 88/107/69 82/105/69 81/106/69
f 86/108/70 85/107/70 84/106/70
f 85/107/70 81/105/70 84/106/70
f 87/105/71 86/106/71 83/107/71
f 86/106/71 84/108/71 83/107/71
