mtllib models/block/bookcase.mtl
o book9
v 0.437988 0.030788 0.843015
v 0.062987 0.030788 0.843015
v 0.437988 0.030788 0.968015
v 0.062987 0.030788 0.968015
v 0.437988 0.437039 0.843015
v 0.062987 0.437039 0.843015
v 0.437988 0.437039 0.968015
v 0.062987 0.437039 0.968015
vt 0.126032 0.545432
vt 0.155979 0.545432
vt 0.155979 0.455589
vt 0.126032 0.455589
vt 0.156026 0.545872
vt 0.156026 0.453226
vt 0.125144 0.453226
vt 0.125144 0.545872
vt 0.219147 0.452614
vt 0.126154 0.452614
vt 0.126154 0.351871
vt 0.219147 0.351871
vt 0.124768 0.452302
vt 0.093936 0.452302
vt 0.093936 0.352099
vt 0.124768 0.352099
vt 0.000624 0.452425
vt 0.093617 0.452425
vt 0.093617 0.351682
vt 0.000624 0.351682
vt 0.218955 0.452137
vt 0.249762 0.452137
vt 0.249762 0.352012
vt 0.218955 0.352012
vn 0.000000 -1.000000 0.000000
vn -0.000000 1.000000 -0.000000
vn -0.000000 -0.000000 -1.000000
vn -1.000000 -0.000000 0.000000
vn 0.000000 0.000000 1.000000
vn 1.000000 0.000000 -0.000000
usemtl books
f 1/1/1 3/2/1 4/3/1
f 4/3/1 2/4/1 1/1/1
f 5/5/2 6/6/2 8/7/2
f 8/7/2 7/8/2 5/5/2
f 1/9/3 2/10/3 6/11/3
f 6/11/3 5/12/3 1/9/3
f 2/13/4 4/14/4 8/15/4
f 8/15/4 6/16/4 2/13/4
f 4/17/5 3/18/5 7/19/5
f 7/19/5 8/20/5 4/17/5
f 3/21/6 1/22/6 5/23/6
f 5/23/6 7/24/6 3/21/6
o book7
v 0.438567 0.517797 0.156630
v 0.063565 0.517797 0.156630
v 0.438567 0.517797 0.250380
v 0.063565 0.517797 0.250380
v 0.438567 0.924048 0.156629
v 0.063565 0.924048 0.156630
v 0.438567 0.924048 0.250380
v 0.063565 0.924048 0.250380
vt 0.639601 0.763430
vt 0.617201 0.763430
vt 0.617201 0.673831
vt 0.639601 0.673831
vt 0.618152 0.761728
vt 0.618152 0.674721
vt 0.639904 0.674721
vt 0.639904 0.761728
vt 0.710916 0.670579
vt 0.620372 0.670579
vt 0.620372 0.572489
vt 0.710916 0.572489
vt 0.594436 0.572355
vt 0.616965 0.572355
vt 0.616965 0.669981
vt 0.594436 0.669981
vt 0.502571 0.572110
vt 0.593741 0.572110
vt 0.593741 0.670878
vt 0.502571 0.670878
vt 0.734197 0.670374
vt 0.711703 0.670374
vt 0.711703 0.572899
vt 0.734197 0.572899
vn 0.000000 -1.000000 0.000000
vn -0.000000 1.000000 -0.000000
vn -0.000000 -0.000000 -1.000000
vn -1.000000 -0.000000 0.000000
vn 0.000000 0.000000 1.000000
vn 1.000000 -0.000000 0.000000
usemtl books
f 9/25/7 11/26/7 12/27/7
f 12/27/7 10/28/7 9/25/7
f 13/29/8 14/30/8 16/31/8
f 16/31/8 15/32/8 13/29/8
f 9/33/9 10/34/9 14/35/9
f 14/35/9 13/36/9 9/33/9
f 10/37/10 12/38/10 16/39/10
f 16/39/10 14/40/10 10/37/10
f 12/41/11 11/42/11 15/43/11
f 15/43/11 16/44/11 12/41/11
f 11/45/12 9/46/12 13/47/12
f 13/47/12 15/48/12 11/45/12
o book16
v 0.437950 0.030788 0.030571
v 0.062949 0.030788 0.030571
v 0.437951 0.030788 0.155571
v 0.062949 0.030788 0.155571
v 0.437950 0.437039 0.030571
v 0.062949 0.437039 0.030571
v 0.437950 0.437039 0.155571
v 0.062949 0.437039 0.155571
vt 0.876148 0.318745
vt 0.904959 0.318745
vt 0.904959 0.232314
vt 0.876149 0.232314
vt 0.967997 0.225425
vt 0.876468 0.225425
vt 0.876468 0.126269
vt 0.967997 0.126269
vt 0.874843 0.225643
vt 0.844333 0.225643
vt 0.844333 0.126487
vt 0.874843 0.126487
vt 0.752063 0.225567
vt 0.843592 0.225567
vt 0.843592 0.126410
vt 0.752063 0.126410
vt 0.969218 0.224771
vt 0.999728 0.224771
vt 0.999728 0.125614
vt 0.969218 0.125614
vn 0.000000 -1.000000 -0.000000
vn -0.000000 1.000000 -0.000000
vn -0.000000 -0.000000 -1.000000
vn -1.000000 -0.000000 0.000000
vn 0.000000 0.000000 1.000000
vn 1.000000 -0.000000 -0.000000
usemtl books
f 17/49/13 19/50/13 20/51/13
f 20/51/13 18/52/13 17/49/13
f 21/50/14 22/51/14 24/52/14
f 24/52/14 23/49/14 21/50/14
f 17/53/15 18/54/15 22/55/15
f 22/55/15 21/56/15 17/53/15
f 18/57/16 20/58/16 24/59/16
f 24/59/16 22/60/16 18/57/16
f 20/61/17 19/62/17 23/63/17
f 23/63/17 24/64/17 20/61/17
f 19/65/18 17/66/18 21/67/18
f 21/67/18 23/68/18 19/65/18
o book5
v 0.438494 0.517797 0.375533
v 0.063492 0.517797 0.375533
v 0.438494 0.517797 0.500534
v 0.063492 0.517797 0.500534
v 0.438494 0.924048 0.375533
v 0.063492 0.924048 0.375533
v 0.438494 0.924048 0.500533
v 0.063492 0.924048 0.500534
vt 0.126327 0.763430
vt 0.156338 0.763430
vt 0.156338 0.673397
vt 0.126327 0.673397
vt 0.156037 0.764124
vt 0.156037 0.674994
vt 0.126327 0.674994
vt 0.126327 0.764124
vt 0.217281 0.671055
vt 0.125668 0.671055
vt 0.125668 0.571806
vt 0.217281 0.571806
vt 0.124100 0.571586
vt 0.093608 0.571586
vt 0.093608 0.670685
vt 0.124100 0.670685
vt 0.003412 0.670685
vt 0.094888 0.670685
vt 0.094888 0.571586
vt 0.003412 0.571586
vt 0.219173 0.671229
vt 0.249711 0.671229
vt 0.249711 0.571981
vt 0.219173 0.571981
vn 0.000000 -1.000000 0.000000
vn -0.000000 1.000000 -0.000000
vn -0.000000 -0.000000 -1.000000
vn -1.000000 -0.000000 0.000000
vn 0.000000 0.000000 1.000000
vn 1.000000 0.000000 -0.000000
usemtl books
f 25/69/19 27/70/19 28/71/19
f 28/71/19 26/72/19 25/69/19
f 29/73/20 30/74/20 32/75/20
f 32/75/20 31/76/20 29/73/20
f 25/77/21 26/78/21 30/79/21
f 30/79/21 29/80/21 25/77/21
f 26/81/22 28/82/22 32/83/22
f 32/83/22 30/84/22 26/81/22
f 28/85/23 27/86/23 31/87/23
f 31/87/23 32/88/23 28/85/23
f 27/89/24 25/90/24 29/91/24
f 29/91/24 31/92/24 27/89/24
o book13
v 0.438354 0.030788 0.405574
v 0.063353 0.030788 0.405574
v 0.438355 0.030788 0.530574
v 0.063353 0.030788 0.530575
v 0.438354 0.468289 0.405574
v 0.063353 0.468289 0.405574
v 0.438354 0.468289 0.530574
v 0.063353 0.468289 0.530575
vt 0.125865 0.318789
vt 0.155547 0.318789
vt 0.155547 0.229744
vt 0.125865 0.229744
vt 0.125827 0.117670
vt 0.218502 0.117670
vt 0.218502 0.225792
vt 0.125827 0.225792
vt 0.125131 0.226069
vt 0.094239 0.226069
vt 0.094239 0.117947
vt 0.125131 0.117947
vt 0.001039 0.117888
vt 0.093715 0.117888
vt 0.093715 0.226010
vt 0.001039 0.226010
vt 0.219016 0.225877
vt 0.249908 0.225877
vt 0.249908 0.117756
vt 0.219016 0.117756
vn 0.000000 -1.000000 0.000000
vn -0.000000 1.000000 0.000000
vn -0.000000 -0.000000 -1.000000
vn -1.000000 -0.000000 0.000000
vn 0.000000 0.000000 1.000000
vn 1.000000 -0.000000 -0.000000
usemtl books
f 33/93/25 35/94/25 36/95/25
f 36/95/25 34/96/25 33/93/25
f 37/94/26 38/95/26 40/96/26
f 40/96/26 39/93/26 37/94/26
f 33/97/27 34/98/27 38/99/27
f 38/99/27 37/100/27 33/97/27
f 34/101/28 36/102/28 40/103/28
f 40/103/28 38/104/28 34/101/28
f 36/105/29 35/106/29 39/107/29
f 39/107/29 40/108/29 36/105/29
f 35/109/30 33/110/30 37/111/30
f 37/111/30 39/112/30 35/109/30
o book2
v 0.437171 0.517797 0.749941
v 0.062169 0.517797 0.749941
v 0.437171 0.517797 0.843691
v 0.062169 0.517797 0.843691
v 0.437171 0.892798 0.749940
v 0.062169 0.892798 0.749941
v 0.437171 0.892798 0.843691
v 0.062169 0.892798 0.843691
vt 0.367563 0.983343
vt 0.390764 0.983343
vt 0.390764 0.890538
vt 0.367563 0.890538
vt 0.390764 0.983562
vt 0.390764 0.890757
vt 0.367563 0.890757
vt 0.367563 0.983562
vt 0.460139 0.890189
vt 0.367334 0.890189
vt 0.367334 0.797384
vt 0.460139 0.797384
vt 0.367857 0.889971
vt 0.344656 0.889971
vt 0.344656 0.797166
vt 0.367857 0.797166
vt 0.251273 0.797166
vt 0.344078 0.797166
vt 0.344078 0.889971
vt 0.251273 0.889971
vt 0.460936 0.797602
vt 0.484137 0.797602
vt 0.484137 0.890407
vt 0.460936 0.890407
vn 0.000000 -1.000000 0.000000
vn 0.000000 1.000000 -0.000000
vn 0.000000 -0.000000 -1.000000
vn -1.000000 -0.000000 0.000000
vn 0.000000 0.000000 1.000000
vn 1.000000 0.000000 0.000000
usemtl books
f 41/113/31 43/114/31 44/115/31
f 44/115/31 42/116/31 41/113/31
f 45/117/32 46/118/32 48/119/32
f 48/119/32 47/120/32 45/117/32
f 41/121/33 42/122/33 46/123/33
f 46/123/33 45/124/33 41/121/33
f 42/125/34 44/126/34 48/127/34
f 48/127/34 46/128/34 42/125/34
f 44/129/35 43/130/35 47/131/35
f 47/131/35 48/132/35 44/129/35
f 43/133/36 41/134/36 45/135/36
f 45/135/36 47/136/36 43/133/36
o book10
v 0.437774 0.030788 0.718135
v 0.062772 0.030788 0.718135
v 0.437774 0.030788 0.843135
v 0.062772 0.030788 0.843135
v 0.437774 0.468289 0.718135
v 0.062772 0.468289 0.718135
v 0.437774 0.468289 0.843135
v 0.062772 0.468289 0.843135
vt 0.375304 0.544805
vt 0.405816 0.544805
vt 0.405816 0.453268
vt 0.375304 0.453268
vt 0.405832 0.545283
vt 0.405832 0.453653
vt 0.375288 0.453653
vt 0.375288 0.545283
vt 0.468660 0.452904
vt 0.375417 0.452904
vt 0.375417 0.344120
vt 0.468660 0.344120
vt 0.375066 0.452858
vt 0.343984 0.452858
vt 0.343984 0.344075
vt 0.375066 0.344075
vt 0.250623 0.452850
vt 0.343866 0.452850
vt 0.343866 0.344067
vt 0.250623 0.344067
vt 0.468727 0.344188
vt 0.499809 0.344188
vt 0.499809 0.452972
vt 0.468727 0.452972
vn 0.000000 -1.000000 0.000000
vn -0.000000 1.000000 -0.000000
vn -0.000000 -0.000000 -1.000000
vn -1.000000 -0.000000 0.000000
vn 0.000000 0.000000 1.000000
vn 1.000000 0.000000 -0.000000
usemtl books
f 49/137/37 51/138/37 52/139/37
f 52/139/37 50/140/37 49/137/37
f 53/141/38 54/142/38 56/143/38
f 56/143/38 55/144/38 53/141/38
f 49/145/39 50/146/39 54/147/39
f 54/147/39 53/148/39 49/145/39
f 50/149/40 52/150/40 56/151/40
f 56/151/40 54/152/40 50/149/40
f 52/153/41 51/154/41 55/155/41
f 55/155/41 56/156/41 52/153/41
f 51/157/42 49/158/42 53/159/42
f 53/159/42 55/160/42 51/157/42
o book8
v 0.437950 0.517797 0.031554
v 0.062949 0.517797 0.031555
v 0.437950 0.517797 0.156555
v 0.062949 0.517797 0.156555
v 0.437950 0.924048 0.031554
v 0.062949 0.924048 0.031555
v 0.437950 0.924048 0.156555
v 0.062949 0.924048 0.156555
vt 0.860765 0.762700
vt 0.890404 0.762700
vt 0.890404 0.673786
vt 0.860765 0.673786
vt 0.952748 0.572117
vt 0.861521 0.572117
vt 0.861521 0.670947
vt 0.952748 0.670947
vt 0.858874 0.670947
vt 0.828465 0.670947
vt 0.828465 0.572117
vt 0.858874 0.572117
vt 0.735994 0.571614
vt 0.827222 0.571614
vt 0.827222 0.670444
vt 0.735994 0.670444
vt 0.953889 0.670947
vt 0.984298 0.670947
vt 0.984298 0.572117
vt 0.953888 0.572117
vn 0.000000 -1.000000 0.000000
vn -0.000000 1.000000 -0.000000
vn -0.000000 -0.000000 -1.000000
vn -1.000000 -0.000000 0.000000
vn 0.000000 0.000000 1.000000
vn 1.000000 0.000000 -0.000000
usemtl books
f 57/161/43 59/162/43 60/163/43
f 60/163/43 58/164/43 57/161/43
f 61/162/44 62/163/44 64/164/44
f 64/164/44 63/161/44 61/162/44
f 57/165/45 58/166/45 62/167/45
f 62/167/45 61/168/45 57/165/45
f 58/169/46 60/170/46 64/171/46
f 64/171/46 62/172/46 58/169/46
f 60/173/47 59/174/47 63/175/47
f 63/175/47 64/176/47 60/173/47
f 59/177/48 57/178/48 61/179/48
f 61/179/48 63/180/48 59/177/48
o book14
v 0.437572 0.030788 0.280572
v 0.062571 0.030788 0.280572
v 0.437573 0.030788 0.405572
v 0.062571 0.030788 0.405572
v 0.437572 0.437039 0.280572
v 0.062571 0.437039 0.280572
v 0.437572 0.437039 0.405572
v 0.062571 0.437039 0.405572
vt 0.376252 0.318619
vt 0.405223 0.318619
vt 0.405223 0.231708
vt 0.376252 0.231708
vt 0.468246 0.225740
vt 0.375804 0.225740
vt 0.375804 0.125594
vt 0.468246 0.125594
vt 0.374590 0.225816
vt 0.343776 0.225816
vt 0.343776 0.125671
vt 0.374590 0.125671
vt 0.250798 0.225304
vt 0.343240 0.225304
vt 0.343240 0.125158
vt 0.250798 0.125158
vt 0.468931 0.125594
vt 0.499746 0.125594
vt 0.499746 0.225740
vt 0.468931 0.225740
vn 0.000000 -1.000000 0.000000
vn -0.000000 1.000000 0.000000
vn -0.000000 -0.000000 -1.000000
vn -1.000000 -0.000000 0.000000
vn 0.000000 0.000000 1.000000
vn 1.000000 0.000000 -0.000000
usemtl books
f 65/181/49 67/182/49 68/183/49
f 68/183/49 66/184/49 65/181/49
f 69/182/50 70/183/50 72/184/50
f 72/184/50 71/181/50 69/182/50
f 65/185/51 66/186/51 70/187/51
f 70/187/51 69/188/51 65/185/51
f 66/189/52 68/190/52 72/191/52
f 72/191/52 70/192/52 66/189/52
f 68/193/53 67/194/53 71/195/53
f 71/195/53 72/196/53 68/193/53
f 67/197/54 65/198/54 69/199/54
f 69/199/54 71/200/54 67/197/54
o book3
v 0.437793 0.517797 0.625575
v 0.062791 0.517797 0.625575
v 0.437793 0.517797 0.750575
v 0.062791 0.517797 0.750575
v 0.437793 0.892798 0.625575
v 0.062791 0.892798 0.625575
v 0.437793 0.892798 0.750575
v 0.062791 0.892798 0.750575
vt 0.610199 0.981472
vt 0.640435 0.981472
vt 0.640435 0.890765
vt 0.610199 0.890765
vt 0.640151 0.982039
vt 0.640151 0.891332
vt 0.609915 0.891332
vt 0.609915 0.982039
vt 0.702991 0.798245
vt 0.613491 0.798245
vt 0.613491 0.887745
vt 0.702991 0.887745
vt 0.608696 0.888294
vt 0.578460 0.888294
vt 0.578460 0.797587
vt 0.608696 0.797587
vt 0.613207 0.798245
vt 0.702708 0.798245
vt 0.702708 0.887745
vt 0.613207 0.887745
vt 0.703532 0.888861
vt 0.733767 0.888861
vt 0.733767 0.798154
vt 0.703532 0.798154
vn 0.000000 -1.000000 0.000000
vn 0.000000 1.000000 -0.000000
vn 0.000000 -0.000000 -1.000000
vn -1.000000 -0.000000 0.000000
vn 0.000000 0.000000 1.000000
vn 1.000000 0.000000 -0.000000
usemtl books
f 73/201/55 75/202/55 76/203/55
f 76/203/55 74/204/55 73/201/55
f 77/205/56 78/206/56 80/207/56
f 80/207/56 79/208/56 77/205/56
f 73/209/57 74/210/57 78/211/57
f 78/211/57 77/212/57 73/209/57
f 74/213/58 76/214/58 80/215/58
f 80/215/58 78/216/58 74/213/58
f 76/217/59 75/218/59 79/219/59
f 79/219/59 80/220/59 76/217/59
f 75/221/60 73/222/60 77/223/60
f 77/223/60 79/224/60 75/221/60
o book11
v 0.437187 0.030788 0.624506
v 0.062185 0.030788 0.624506
v 0.437187 0.030788 0.718257
v 0.062185 0.030788 0.718257
v 0.437187 0.405789 0.624506
v 0.062185 0.405789 0.624506
v 0.437187 0.405789 0.718257
v 0.062185 0.405789 0.718257
vt 0.617764 0.544656
vt 0.639670 0.544656
vt 0.639670 0.457032
vt 0.617764 0.457032
vt 0.639680 0.544925
vt 0.639680 0.457223
vt 0.617754 0.457223
vt 0.617754 0.544925
vt 0.618182 0.444909
vt 0.710273 0.444909
vt 0.710273 0.352817
vt 0.618182 0.352817
vt 0.616928 0.354897
vt 0.594377 0.354897
vt 0.594377 0.445100
vt 0.616928 0.445100
vt 0.592977 0.353534
vt 0.501501 0.353534
vt 0.501501 0.445010
vt 0.592977 0.445010
vt 0.711151 0.444968
vt 0.734169 0.444968
vt 0.734169 0.352897
vt 0.711151 0.352897
vn 0.000000 -1.000000 0.000000
vn -0.000000 1.000000 -0.000000
vn -0.000000 -0.000000 -1.000000
vn -1.000000 -0.000000 0.000000
vn 0.000000 0.000000 1.000000
vn 1.000000 0.000000 -0.000000
usemtl books
f 81/225/61 83/226/61 84/227/61
f 84/227/61 82/228/61 81/225/61
f 85/229/62 86/230/62 88/231/62
f 88/231/62 87/232/62 85/229/62
f 81/233/63 82/234/63 86/235/63
f 86/235/63 85/236/63 81/233/63
f 82/237/64 84/238/64 88/239/64
f 88/239/64 86/240/64 82/237/64
f 84/241/65 83/242/65 87/243/65
f 87/243/65 88/244/65 84/241/65
f 83/245/66 81/246/66 85/247/66
f 85/247/66 87/248/66 83/245/66
o bookcase
v 0.500004 0.000000 0.031251
v 0.000002 0.000000 0.031251
v 0.500004 0.000000 0.968754
v 0.000002 0.000000 0.968754
v 0.500004 0.031250 0.031251
v 0.000002 0.031250 0.031251
v 0.500004 0.031250 0.968754
v 0.000002 0.031250 0.968754
v 0.500102 0.484377 0.031251
v 0.031350 0.484377 0.031251
v 0.500102 0.484377 0.968754
v 0.031350 0.484377 0.968754
v 0.500102 0.515627 0.031251
v 0.031350 0.515627 0.031251
v 0.500102 0.515627 0.968754
v 0.031350 0.515627 0.968754
v 0.500004 0.968754 0.031251
v 0.000002 0.968754 0.031251
v 0.500004 0.968754 0.968754
v 0.000002 0.968754 0.968754
v 0.500004 1.000004 0.031251
v 0.000002 1.000004 0.031251
v 0.500004 1.000004 0.968754
v 0.000002 1.000004 0.968754
v 0.500004 0.000000 0.000000
v 0.000002 0.000000 0.000000
v 0.500004 0.000000 0.031250
v 0.000002 0.000000 0.031249
v 0.500004 1.000004 0.000000
v 0.000002 1.000004 -0.000000
v 0.500004 1.000004 0.031250
v 0.000002 1.000004 0.031249
v 0.500004 0.000000 0.968740
v 0.000002 0.000000 0.968740
v 0.500004 0.000000 0.999990
v 0.000002 0.000000 0.999990
v 0.500004 1.000004 0.968740
v 0.000002 1.000004 0.968740
v 0.500004 1.000004 0.999990
v 0.000002 1.000004 0.999990
v 0.031249 0.031250 0.031251
v -0.000001 0.031250 0.031251
v 0.031249 0.031250 0.968754
v -0.000001 0.031250 0.968754
v 0.031249 0.968754 0.031251
v -0.000001 0.968754 0.031251
v 0.031249 0.968754 0.968754
v -0.000001 0.968754 0.968754
vt 0.031719 0.000500
vt 0.968295 0.000500
vt 0.968295 0.502991
vt 0.031719 0.502991
vt 0.000000 0.000000
vt 0.000000 0.533333
vt 1.000000 0.533333
vt 1.000000 0.000000
vt 0.062170 0.000500
vt 0.938240 0.000500
vt 0.938240 0.031718
vt 0.062170 0.031718
vt 1.000000 0.033333
vt 0.000000 0.033333
vt 1.000000 0.500000
vt 0.000000 0.500000
vt 0.062170 0.968282
vt 0.938240 0.968282
vt 0.938240 0.999501
vt 0.062170 0.999501
vt 0.000500 0.000500
vt 0.000500 0.502991
vt 0.000979 0.000500
vt 0.000979 0.999501
vt 0.000000 0.031250
vt 1.000000 0.031250
vt 0.999500 0.000500
vt 0.999500 0.502991
vt 0.999402 0.000500
vt 0.999402 0.999501
vt 1.000000 0.031250
vt 0.000000 1.000000
vt 1.000000 1.000000
vn 0.000000 -1.000000 0.000000
vn -0.000000 1.000000 -0.000000
vn -1.000000 -0.000000 0.000000
vn 1.000000 0.000000 -0.000000
vn 0.000000 -0.000000 -1.000000
vn -0.000000 0.000000 1.000000
usemtl wood
f 89/249/67 91/250/67 92/251/67 90/252/67
f 93/253/68 94/254/68 96/255/68 95/256/68
f 90/257/69 92/258/69 96/259/69 94/260/69
f 91/261/70 89/262/70 93/253/70 95/256/70
f 97/253/67 99/256/67 100/263/67 98/264/67
f 101/253/68 102/264/68 104/263/68 103/256/68
f 99/261/70 97/262/70 101/253/70 103/256/70
f 105/253/67 107/256/67 108/255/67 106/254/67
f 109/249/68 110/252/68 112/251/68 111/250/68
f 106/265/69 108/266/69 112/267/69 110/268/69
f 107/261/70 105/262/70 109/253/70 111/256/70
f 113/269/67 115/249/67 116/252/67 114/270/67
f 117/269/68 118/270/68 120/252/68 119/249/68
f 113/256/71 114/263/71 118/264/71 117/253/71
f 114/271/69 116/257/69 120/268/69 118/272/69
f 116/264/72 115/253/72 119/256/72 120/263/72
f 115/273/70 113/253/70 117/256/70 119/274/70
f 121/250/67 123/275/67 124/276/67 122/251/67
f 125/250/68 126/251/68 128/276/68 127/275/68
f 121/256/71 122/263/71 126/264/71 125/253/71
f 122/258/69 124/277/69 128/278/69 126/267/69
f 124/264/72 123/253/72 127/256/72 128/263/72
f 123/273/70 121/253/70 125/256/70 127/279/70
f 130/260/69 132/259/69 136/266/69 134/265/69
f 131/280/70 129/281/70 133/256/70 135/253/70
o book6
v 0.437793 0.517797 0.250298
v 0.062791 0.517797 0.250298
v 0.437793 0.517797 0.375298
v 0.062791 0.517797 0.375298
v 0.437793 0.892798 0.250298
v 0.062791 0.892798 0.250298
v 0.437793 0.892798 0.375298
v 0.062791 0.892798 0.375298
vt 0.375788 0.763405
vt 0.405485 0.763405
vt 0.405485 0.674312
vt 0.375788 0.674312
vt 0.406274 0.763754
vt 0.406274 0.674661
vt 0.376576 0.674661
vt 0.376576 0.763754
vt 0.468163 0.670664
vt 0.379070 0.670664
vt 0.379070 0.581572
vt 0.468162 0.581572
vt 0.374572 0.669814
vt 0.344874 0.669814
vt 0.344874 0.580721
vt 0.374572 0.580721
vt 0.340822 0.670381
vt 0.251730 0.670381
vt 0.251730 0.581288
vt 0.340822 0.581288
vt 0.498705 0.581572
vt 0.469008 0.581572
vt 0.469008 0.670664
vt 0.498705 0.670664
vn 0.000000 -1.000000 0.000000
vn -0.000000 1.000000 -0.000000
vn -0.000000 0.000000 -1.000000
vn -1.000000 -0.000000 0.000000
vn 0.000000 0.000000 1.000000
vn 1.000000 0.000000 -0.000000
usemtl books
f 137/282/73 139/283/73 140/284/73
f 140/284/73 138/285/73 137/282/73
f 141/286/74 142/287/74 144/288/74
f 144/288/74 143/289/74 141/286/74
f 137/290/75 138/291/75 142/292/75
f 142/292/75 141/293/75 137/290/75
f 138/294/76 140/295/76 144/296/76
f 144/296/76 142/297/76 138/294/76
f 140/298/77 139/299/77 143/300/77
f 143/300/77 144/301/77 140/298/77
f 139/302/78 137/303/78 141/304/78
f 141/304/78 143/305/78 139/302/78
o book4
v 0.437948 0.517797 0.500731
v 0.062947 0.517797 0.500731
v 0.437948 0.517797 0.625731
v 0.062947 0.517797 0.625731
v 0.437948 0.924048 0.500731
v 0.062947 0.924048 0.500731
v 0.437948 0.924048 0.625731
v 0.062947 0.924048 0.625731
vt 0.858877 0.982858
vt 0.891329 0.982857
vt 0.891329 0.892018
vt 0.858877 0.892018
vt 0.891665 0.981763
vt 0.891665 0.891684
vt 0.859679 0.891684
vt 0.859679 0.981763
vt 0.951018 0.790405
vt 0.859301 0.790405
vt 0.859301 0.889766
vt 0.951018 0.889766
vt 0.859344 0.890552
vt 0.828151 0.890552
vt 0.828151 0.789175
vt 0.859344 0.789175
vt 0.736523 0.890045
vt 0.828240 0.890045
vt 0.828240 0.790685
vt 0.736523 0.790685
vt 0.952851 0.890650
vt 0.984044 0.890650
vt 0.984044 0.789273
vt 0.952851 0.789273
vn 0.000000 -1.000000 0.000000
vn -0.000000 1.000000 -0.000000
vn -0.000000 -0.000000 -1.000000
vn -1.000000 -0.000000 0.000000
vn 0.000000 0.000000 1.000000
vn 1.000000 0.000000 0.000000
usemtl books
f 145/306/79 147/307/79 148/308/79
f 148/308/79 146/309/79 145/306/79
f 149/310/80 150/311/80 152/312/80
f 152/312/80 151/313/80 149/310/80
f 145/314/81 146/315/81 150/316/81
f 150/316/81 149/317/81 145/314/81
f 146/318/82 148/319/82 152/320/82
f 152/320/82 150/321/82 146/318/82
f 148/322/83 147/323/83 151/324/83
f 151/324/83 152/325/83 148/322/83
f 147/326/84 145/327/84 149/328/84
f 149/328/84 151/329/84 147/326/84
o book15
v 0.438373 0.030788 0.155572
v 0.063372 0.030788 0.155572
v 0.438373 0.030788 0.280572
v 0.063372 0.030788 0.280572
v 0.438373 0.405789 0.155572
v 0.063372 0.405789 0.155572
v 0.438373 0.405789 0.280572
v 0.063372 0.405789 0.280572
vt 0.625211 0.318661
vt 0.655248 0.318661
vt 0.655248 0.228550
vt 0.625211 0.228550
vt 0.718936 0.226203
vt 0.625793 0.226203
vt 0.625793 0.133060
vt 0.718936 0.133060
vt 0.593741 0.133248
vt 0.624623 0.133248
vt 0.624623 0.225895
vt 0.593741 0.225895
vt 0.592807 0.225409
vt 0.501449 0.225409
vt 0.501449 0.134051
vt 0.592807 0.134051
vt 0.749980 0.225919
vt 0.719063 0.225919
vt 0.719063 0.133169
vt 0.749980 0.133169
vn 0.000000 -1.000000 0.000000
vn -0.000000 1.000000 -0.000000
vn -0.000000 -0.000000 -1.000000
vn -1.000000 -0.000000 0.000000
vn 0.000000 0.000000 1.000000
vn 1.000000 0.000000 0.000000
usemtl books
f 153/330/85 155/331/85 156/332/85
f 156/332/85 154/333/85 153/330/85
f 157/331/86 158/332/86 160/333/86
f 160/333/86 159/330/86 157/331/86
f 153/334/87 154/335/87 158/336/87
f 158/336/87 157/337/87 153/334/87
f 154/338/88 156/339/88 160/340/88
f 160/340/88 158/341/88 154/338/88
f 156/342/89 155/343/89 159/344/89
f 159/344/89 160/345/89 156/342/89
f 155/346/90 153/347/90 157/348/90
f 157/348/90 159/349/90 155/346/90
o book12
v 0.437866 0.030788 0.530726
v 0.062864 0.030788 0.530726
v 0.437866 0.030788 0.624477
v 0.062864 0.030788 0.624477
v 0.437866 0.405789 0.530726
v 0.062864 0.405789 0.530726
v 0.437866 0.405789 0.624477
v 0.062864 0.405789 0.624477
vt 0.851882 0.545622
vt 0.874783 0.545622
vt 0.874783 0.454018
vt 0.851882 0.454018
vt 0.874649 0.545538
vt 0.874649 0.453934
vt 0.851748 0.453934
vt 0.851748 0.545538
vt 0.853209 0.452250
vt 0.944813 0.452250
vt 0.944813 0.360645
vt 0.853209 0.360645
vt 0.851502 0.361042
vt 0.828601 0.361042
vt 0.828601 0.452646
vt 0.851502 0.452646
vt 0.827224 0.452468
vt 0.735620 0.452468
vt 0.735620 0.360863
vt 0.827224 0.360863
vt 0.945648 0.452446
vt 0.968549 0.452446
vt 0.968549 0.360842
vt 0.945648 0.360842
vn 0.000000 -1.000000 0.000000
vn -0.000000 1.000000 0.000000
vn -0.000000 -0.000000 -1.000000
vn -1.000000 -0.000000 0.000000
vn 0.000000 0.000000 1.000000
vn 1.000000 0.000000 0.000000
usemtl books
f 161/350/91 163/351/91 164/352/91
f 164/352/91 162/353/91 161/350/91
f 165/354/92 166/355/92 168/356/92
f 168/356/92 167/357/92 165/354/92
f 161/358/93 162/359/93 166/360/93
f 166/360/93 165/361/93 161/358/93
f 162/362/94 164/363/94 168/364/94
f 168/364/94 166/365/94 162/362/94
f 164/366/95 163/367/95 167/368/95
f 167/368/95 168/369/95 164/366/95
f 163/370/96 161/371/96 165/372/96
f 165/372/96 167/373/96 163/370/96
o book1
v 0.437793 0.517797 0.843998
v 0.062791 0.517797 0.843998
v 0.437793 0.517797 0.968999
v 0.062791 0.517797 0.968999
v 0.437793 0.924048 0.843998
v 0.062791 0.924048 0.843998
v 0.437793 0.924048 0.968999
v 0.062791 0.924048 0.968999
vt 0.126134 0.983815
vt 0.156627 0.983815
vt 0.156627 0.892334
vt 0.126134 0.892334
vt 0.155581 0.982197
vt 0.155581 0.894470
vt 0.126338 0.894470
vt 0.126338 0.982197
vt 0.127138 0.889103
vt 0.217662 0.889103
vt 0.217662 0.791035
vt 0.127138 0.791035
vt 0.123676 0.883394
vt 0.094603 0.883394
vt 0.094603 0.788904
vt 0.123676 0.788904
vt 0.096861 0.790040
vt 0.004585 0.790040
vt 0.004585 0.889975
vt 0.096861 0.889975
vt 0.249834 0.890423
vt 0.218737 0.890423
vt 0.218737 0.789355
vt 0.249834 0.789355
vn 0.000000 -1.000000 -0.000000
vn 0.000000 1.000000 -0.000000
vn -0.000000 -0.000000 -1.000000
vn -1.000000 -0.000000 0.000000
vn 0.000000 0.000000 1.000000
vn 1.000000 0.000000 -0.000000
usemtl books
f 169/374/97 171/375/97 172/376/97
f 172/376/97 170/377/97 169/374/97
f 173/378/98 174/379/98 176/380/98
f 176/380/98 175/381/98 173/378/98
f 169/382/99 170/383/99 174/384/99
f 174/384/99 173/385/99 169/382/99
f 170/386/100 172/387/100 176/388/100
f 176/388/100 174/389/100 170/386/100
f 172/390/101 171/391/101 175/392/101
f 175/392/101 176/393/101 172/390/101
f 171/394/102 169/395/102 173/396/102
f 173/396/102 175/397/102 171/394/102
