mtllib paintpress.mtl
o painting
v 0.100000 0.373700 0.100000
v 0.100000 0.373700 0.900000
v 0.900000 0.373700 0.900000
v 0.900000 0.373700 0.100000
vt 1.000000 1.000000
vt 0.000000 1.000000
vt 1.000000 0.000000
vt 0.000000 0.000000
vn 0.000000 1.000000 0.000000
usemtl canvas

f 1/1/1 2/2/1 4/3/1
f 2/2/1 3/4/1 4/3/1
o lid
v -0.116500 0.165900 0.390000
v -0.116500 0.165900 0.610000
v 0.789900 0.588600 0.610000
v 0.789900 0.588600 0.390000
v -0.095300 0.120600 0.390000
v -0.095300 0.120600 0.610000
v 0.811000 0.543200 0.610000
v 0.811000 0.543200 0.390000
v -0.095400 0.120800 0.290000
v -0.095400 0.120800 0.710000
v 0.810900 0.543500 0.710000
v 0.810900 0.543500 0.290000
v -0.074300 0.075500 0.290000
v -0.074300 0.075500 0.710000
v 0.832000 0.498100 0.710000
v 0.832000 0.498100 0.290000
v -0.095600 0.121100 0.029900
v -0.095600 0.121100 0.129900
v 0.810700 0.543800 0.129900
v 0.810700 0.543800 0.029900
v -0.074400 0.075800 0.029900
v -0.074400 0.075800 0.129900
v 0.831900 0.498500 0.129900
v 0.831900 0.498500 0.029900
v -0.095600 0.121100 0.869900
v -0.095600 0.121100 0.969900
v 0.810700 0.543800 0.969900
v 0.810700 0.543800 0.869900
v -0.074400 0.075800 0.869900
v -0.074400 0.075800 0.969900
v 0.831900 0.498500 0.969900
v 0.831900 0.498500 0.869900
v -0.032200 -0.014700 0.000000
v 0.874100 0.407900 0.000000
v 0.874100 0.407900 1.000000
v -0.032200 -0.014700 1.000000
v -0.074500 0.076000 0.000000
v -0.074500 0.076000 1.000000
v 0.831800 0.498600 1.000000
v 0.831800 0.498600 0.000000
v 0.052600 -0.019200 0.075000
v 0.823000 0.340000 0.075000
v 0.823000 0.340000 0.925000
v 0.052600 -0.019200 0.925000
v 0.035700 0.017000 0.925000
v 0.035700 0.017000 0.075000
v 0.806100 0.376200 0.925000
v 0.806100 0.376200 0.075000
vt 0.988200 0.542900
vt 0.988200 0.642500
vt 0.535500 0.542900
vt 0.535500 0.642500
vt 0.449300 0.718100
vt 0.313500 0.718100
vt 0.449300 0.687300
vt 0.313500 0.687300
vt 0.987500 0.849100
vt 0.316000 0.849100
vt 0.987500 0.815500
vt 0.316000 0.815500
vt 0.993900 0.499900
vt 0.993900 0.688600
vt 0.544700 0.499900
vt 0.544700 0.688600
vt 0.469500 0.655200
vt 0.469500 0.392700
vt 0.500800 0.655200
vt 0.500800 0.392700
vt 0.987200 0.849300
vt 0.315700 0.849300
vt 0.987200 0.815800
vt 0.315700 0.815800
vt 0.953300 0.747100
vt 0.953300 0.785300
vt 0.571500 0.747100
vt 0.571500 0.785300
vt 0.381900 0.785600
vt 0.306900 0.785600
vt 0.381900 0.748100
vt 0.306900 0.748100
vt 0.986400 0.848900
vt 0.315700 0.848900
vt 0.986400 0.815400
vt 0.315700 0.815400
vt 0.307200 0.748000
vt 0.382200 0.748000
vt 0.307200 0.785500
vt 0.382200 0.785500
vt 0.315800 0.815600
vt 0.987300 0.815600
vt 0.315800 0.849200
vt 0.987300 0.849200
vt 0.948300 0.747000
vt 0.948300 0.784800
vt 0.570600 0.747000
vt 0.570600 0.784800
vt 0.304500 0.689500
vt 0.304500 0.991800
vt 0.002100 0.689500
vt 0.002100 0.991800
vt 0.984100 0.374800
vt 0.984100 0.812700
vt 0.546200 0.374800
vt 0.546200 0.812700
vt 0.985800 0.986600
vt 0.312500 0.986600
vt 0.985800 0.919200
vt 0.312500 0.919200
vt 0.985400 0.986700
vt 0.312100 0.986700
vt 0.985400 0.919400
vt 0.312100 0.919400
vt 0.314400 0.853300
vt 0.987600 0.853300
vt 0.314400 0.920600
vt 0.987600 0.920600
vt 0.449200 0.189200
vt 0.449200 0.601900
vt 0.036400 0.189200
vt 0.036400 0.601900
vt 0.449500 0.624200
vt 0.005400 0.624200
vt 0.449500 0.603300
vt 0.005400 0.603300
vt 0.449900 0.624200
vt 0.005300 0.624200
vt 0.449900 0.603300
vt 0.005300 0.603300
vn -0.422700 0.906300 0.000000
vn -0.905700 -0.423900 -0.000000
vn 0.000000 -0.000000 1.000000
vn 0.906800 0.421500 0.000000
vn 0.000000 0.000000 -1.000000
vn -0.906500 -0.422200 -0.000000
vn 0.905700 0.423900 0.000000
vn 0.422600 -0.906300 -0.000000
vn -0.422600 0.906300 0.000000
vn -0.906300 -0.422700 -0.000000
vn 0.906300 0.422700 0.000000
vn -0.906100 -0.423000 -0.000000
vn 0.906100 0.423000 0.000000
usemtl paintpress

f 5/5/2 6/6/2 8/7/2
f 6/6/2 7/8/2 8/7/2
f 9/9/3 10/10/3 5/11/3
f 10/10/3 6/12/3 5/11/3
f 10/13/4 11/14/4 6/15/4
f 11/14/4 7/16/4 6/15/4
f 11/12/5 12/11/5 7/10/5
f 12/11/5 8/9/5 7/10/5
f 12/16/6 9/15/6 8/14/6
f 9/15/6 5/13/6 8/14/6
f 13/17/2 14/18/2 16/19/2
f 14/18/2 15/20/2 16/19/2
f 17/21/7 18/22/7 13/23/7
f 18/22/7 14/24/7 13/23/7
f 18/25/4 19/26/4 14/27/4
f 19/26/4 15/28/4 14/27/4
f 19/24/5 20/23/5 15/22/5
f 20/23/5 16/21/5 15/22/5
f 20/28/6 17/27/6 16/26/6
f 17/27/6 13/25/6 16/26/6
f 21/29/2 22/30/2 24/31/2
f 22/30/2 23/32/2 24/31/2
f 25/33/3 26/34/3 21/35/3
f 26/34/3 22/36/3 21/35/3
f 26/37/4 27/38/4 22/39/4
f 27/38/4 23/40/4 22/39/4
f 27/41/8 28/42/8 23/43/8
f 28/42/8 24/44/8 23/43/8
f 28/45/6 25/46/6 24/47/6
f 25/46/6 21/48/6 24/47/6
f 29/49/2 30/50/2 32/51/2
f 30/50/2 31/52/2 32/51/2
f 33/44/3 34/43/3 29/42/3
f 34/43/3 30/41/3 29/42/3
f 34/48/4 35/47/4 30/46/4
f 35/47/4 31/45/4 30/46/4
f 35/36/8 36/35/8 31/34/8
f 36/35/8 32/33/8 31/34/8
f 36/40/6 33/39/6 32/38/6
f 33/39/6 29/37/6 32/38/6
f 37/53/9 38/54/9 40/55/9
f 38/54/9 39/56/9 40/55/9
f 41/57/10 42/58/10 44/59/10
f 42/58/10 43/60/10 44/59/10
f 37/61/11 40/62/11 41/63/11
f 40/62/11 42/64/11 41/63/11
f 40/65/4 39/66/4 42/67/4
f 39/66/4 43/68/4 42/67/4
f 39/69/12 38/70/12 43/71/12
f 38/70/12 44/72/12 43/71/12
f 38/68/6 37/67/6 44/66/6
f 37/67/6 41/65/6 44/66/6
f 45/73/9 46/74/9 48/75/9
f 46/74/9 47/76/9 48/75/9
f 45/77/13 48/78/13 50/79/13
f 48/78/13 49/80/13 50/79/13
f 48/81/4 47/82/4 49/83/4
f 47/82/4 51/84/4 49/83/4
f 47/84/14 46/83/14 51/82/14
f 46/83/14 52/81/14 51/82/14
f 46/84/6 45/83/6 52/82/6
f 45/83/6 50/81/6 52/82/6
o base
v 0.075000 0.319200 0.075000
v 0.075000 0.319200 0.925000
v 0.925000 0.319200 0.925000
v 0.925000 0.319200 0.075000
v 0.075000 0.279200 0.075000
v 0.075000 0.279200 0.925000
v 0.925000 0.279200 0.925000
v 0.925000 0.279200 0.075000
v 0.000000 0.080000 -0.000000
v 0.500000 0.080000 -0.000000
v 0.500000 0.080000 1.000000
v 0.000000 0.080000 1.000000
v 1.000000 0.080000 -0.000000
v 1.000000 0.080000 1.000000
v 0.000000 0.280000 -0.000000
v 0.000000 0.280000 1.000000
v 0.500000 0.280000 1.000000
v 0.500000 0.280000 -0.000000
v 1.000000 0.280000 1.000000
v 1.000000 0.280000 -0.000000
v 0.075000 0.000000 0.075000
v 0.500000 0.000000 0.075000
v 0.500000 -0.000000 0.925000
v 0.075000 -0.000000 0.925000
v 0.925000 0.000000 0.075000
v 0.925000 -0.000000 0.925000
v 0.075000 0.080000 0.925000
v 0.075000 0.080000 0.075000
v 0.500000 0.080000 0.925000
v 0.925000 0.080000 0.925000
v 0.925000 0.080000 0.075000
v 0.500000 0.080000 0.075000
v 0.015100 0.279200 0.075000
v 0.015100 0.279200 0.925000
v 0.015100 0.409200 0.925000
v 0.015100 0.409200 0.075000
v 0.055100 0.279200 0.925000
v 0.055100 0.409200 0.925000
v 0.055100 0.279200 0.075000
v 0.055100 0.409200 0.075000
vt 0.449200 0.601900
vt 0.036500 0.601900
vt 0.449200 0.189200
vt 0.036500 0.189200
vt 0.449400 0.624200
vt 0.005200 0.624200
vt 0.449400 0.603300
vt 0.005200 0.603300
vt 0.305000 0.689100
vt 0.305000 0.840400
vt 0.002500 0.689100
vt 0.002500 0.840400
vt 0.305000 0.991600
vt 0.002500 0.991600
vt 0.304600 0.991900
vt 0.002100 0.991900
vt 0.304600 0.840600
vt 0.002100 0.840600
vt 0.304600 0.689400
vt 0.002100 0.689400
vt 0.970300 0.357900
vt 0.504900 0.357900
vt 0.970300 0.264900
vt 0.504900 0.264900
vt 0.737600 0.357900
vt 0.737600 0.264900
vt 0.009200 0.013100
vt 0.805400 0.013100
vt 0.009200 0.172300
vt 0.805400 0.172300
vt 0.279800 0.720600
vt 0.279800 0.843900
vt 0.033200 0.720600
vt 0.033200 0.843900
vt 0.279800 0.967200
vt 0.033200 0.967200
vt 0.005600 0.623200
vt 0.365800 0.623200
vt 0.005600 0.657100
vt 0.365800 0.657100
vt 0.185700 0.623200
vt 0.185700 0.657100
vt 0.363000 0.623500
vt 0.363000 0.656800
vt 0.999300 0.257200
vt 0.501800 0.257200
vt 0.999300 0.181100
vt 0.501800 0.181100
vt 0.495500 0.269400
vt 0.472100 0.269400
vt 0.495500 0.193300
vt 0.472100 0.193300
vn 0.000000 1.000000 0.000000
vn -1.000000 0.000000 0.000000
vn 0.000000 0.000000 1.000000
vn 1.000000 0.000000 0.000000
vn 0.000000 0.000000 -1.000000
vn 0.000000 -1.000000 -0.000000
usemtl paintpress

f 53/85/15 54/86/15 56/87/15
f 54/86/15 55/88/15 56/87/15
f 57/89/16 58/90/16 53/91/16
f 58/90/16 54/92/16 53/91/16
f 58/89/17 59/90/17 54/91/17
f 59/90/17 55/92/17 54/91/17
f 59/89/18 60/90/18 55/91/18
f 60/90/18 56/92/18 55/91/18
f 60/89/19 57/90/19 56/91/19
f 57/90/19 53/92/19 56/91/19
f 61/93/20 62/94/20 64/95/20
f 62/94/20 63/96/20 64/95/20
f 62/94/20 65/97/20 63/96/20
f 65/97/20 66/98/20 63/96/20
f 67/99/15 68/100/15 70/101/15
f 68/100/15 69/102/15 70/101/15
f 70/101/15 69/102/15 72/103/15
f 69/102/15 71/104/15 72/103/15
f 61/105/16 64/106/16 67/107/16
f 64/106/16 68/108/16 67/107/16
f 64/105/17 63/109/17 68/107/17
f 63/109/17 69/110/17 68/107/17
f 63/109/17 66/106/17 69/110/17
f 66/106/17 71/108/17 69/110/17
f 66/111/18 65/112/18 71/113/18
f 65/112/18 72/114/18 71/113/18
f 65/106/19 62/109/19 72/108/19
f 62/109/19 70/110/19 72/108/19
f 62/109/19 61/105/19 70/110/19
f 61/105/19 67/107/19 70/110/19
f 73/115/20 74/116/20 76/117/20
f 74/116/20 75/118/20 76/117/20
f 74/116/20 77/119/20 75/118/20
f 77/119/20 78/120/20 75/118/20
f 73/121/16 76/122/16 80/123/16
f 76/122/16 79/124/16 80/123/16
f 76/121/17 75/125/17 79/123/17
f 75/125/17 81/126/17 79/123/17
f 75/125/17 78/127/17 81/126/17
f 78/127/17 82/128/17 81/126/17
f 78/124/18 77/123/18 82/122/18
f 77/123/18 83/121/18 82/122/18
f 77/128/19 74/126/19 83/127/19
f 74/126/19 84/125/19 83/127/19
f 74/126/19 73/123/19 84/125/19
f 73/123/19 80/121/19 84/125/19
f 85/129/16 86/130/16 88/131/16
f 86/130/16 87/132/16 88/131/16
f 86/133/17 89/134/17 87/135/17
f 89/134/17 90/136/17 87/135/17
f 89/132/18 91/131/18 90/130/18
f 91/131/18 92/129/18 90/130/18
f 91/136/19 85/135/19 92/134/19
f 85/135/19 88/133/19 92/134/19
o canvas
v 0.100000 0.323700 0.100000
v 0.100000 0.323700 0.900000
v 0.100000 0.373700 0.900000
v 0.100000 0.373700 0.100000
v 0.900000 0.323700 0.900000
v 0.900000 0.373700 0.900000
v 0.900000 0.323700 0.100000
v 0.900000 0.373700 0.100000
vt 1.000000 0.188600
vt 0.000000 0.188600
vt 1.000000 0.126100
vt 0.000000 0.126100
vt 1.000000 0.251200
vt 0.000000 0.251200
vt 1.000000 0.188700
vt 0.000000 0.188700
vt 0.000000 0.000000
vt 1.000000 0.000000
vt 0.000000 0.062500
vt 1.000000 0.062500
vt 0.000000 0.063100
vt 1.000000 0.063100
vt 0.000000 0.125600
vt 1.000000 0.125600
vn -1.000000 0.000000 0.000000
vn 0.000000 0.000000 1.000000
vn 1.000000 0.000000 0.000000
vn 0.000000 0.000000 -1.000000
usemtl canvaswood

f 93/137/21 94/138/21 96/139/21
f 94/138/21 95/140/21 96/139/21
f 94/141/22 97/142/22 95/143/22
f 97/142/22 98/144/22 95/143/22
f 97/145/23 99/146/23 98/147/23
f 99/146/23 100/148/23 98/147/23
f 99/149/24 93/150/24 100/151/24
f 93/150/24 96/152/24 100/151/24
o lid_item
v -0.074693 0.559586 0.390000
v -0.074693 0.559586 0.610000
v 0.831707 0.982286 0.610000
v 0.831707 0.982286 0.390000
v -0.053493 0.514286 0.390000
v -0.053493 0.514286 0.610000
v 0.852807 0.936886 0.610000
v 0.852807 0.936886 0.390000
v -0.053593 0.514486 0.290000
v -0.053593 0.514486 0.710000
v 0.852707 0.937186 0.710000
v 0.852707 0.937186 0.290000
v -0.032493 0.469186 0.290000
v -0.032493 0.469186 0.710000
v 0.873807 0.891786 0.710000
v 0.873807 0.891786 0.290000
v -0.053793 0.514786 0.029900
v -0.053793 0.514786 0.129900
v 0.852507 0.937486 0.129900
v 0.852507 0.937486 0.029900
v -0.032593 0.469486 0.029900
v -0.032593 0.469486 0.129900
v 0.873707 0.892186 0.129900
v 0.873707 0.892186 0.029900
v -0.053793 0.514786 0.869900
v -0.053793 0.514786 0.969900
v 0.852507 0.937486 0.969900
v 0.852507 0.937486 0.869900
v -0.032593 0.469486 0.869900
v -0.032593 0.469486 0.969900
v 0.873707 0.892186 0.969900
v 0.873707 0.892186 0.869900
v 0.009607 0.378986 0.000000
v 0.915907 0.801586 0.000000
v 0.915907 0.801586 1.000000
v 0.009607 0.378986 1.000000
v -0.032693 0.469686 0.000000
v -0.032693 0.469686 1.000000
v 0.873607 0.892286 1.000000
v 0.873607 0.892286 0.000000
v 0.094407 0.374486 0.075000
v 0.864807 0.733686 0.075000
v 0.864807 0.733686 0.925000
v 0.094407 0.374486 0.925000
v 0.077507 0.410686 0.925000
v 0.077507 0.410686 0.075000
v 0.847907 0.769886 0.925000
v 0.847907 0.769886 0.075000
vt 0.988200 0.542900
vt 0.988200 0.642500
vt 0.535500 0.542900
vt 0.535500 0.642500
vt 0.449300 0.718100
vt 0.313500 0.718100
vt 0.449300 0.687300
vt 0.313500 0.687300
vt 0.987500 0.849100
vt 0.316000 0.849100
vt 0.987500 0.815500
vt 0.316000 0.815500
vt 0.993900 0.499900
vt 0.993900 0.688600
vt 0.544700 0.499900
vt 0.544700 0.688600
vt 0.469500 0.655200
vt 0.469500 0.392700
vt 0.500800 0.655200
vt 0.500800 0.392700
vt 0.987200 0.849300
vt 0.315700 0.849300
vt 0.987200 0.815800
vt 0.315700 0.815800
vt 0.953300 0.747100
vt 0.953300 0.785300
vt 0.571500 0.747100
vt 0.571500 0.785300
vt 0.381900 0.785600
vt 0.306900 0.785600
vt 0.381900 0.748100
vt 0.306900 0.748100
vt 0.986400 0.848900
vt 0.315700 0.848900
vt 0.986400 0.815400
vt 0.315700 0.815400
vt 0.307200 0.748000
vt 0.382200 0.748000
vt 0.307200 0.785500
vt 0.382200 0.785500
vt 0.315800 0.815600
vt 0.987300 0.815600
vt 0.315800 0.849200
vt 0.987300 0.849200
vt 0.948300 0.747000
vt 0.948300 0.784800
vt 0.570600 0.747000
vt 0.570600 0.784800
vt 0.304500 0.689500
vt 0.304500 0.991800
vt 0.002100 0.689500
vt 0.002100 0.991800
vt 0.984100 0.374800
vt 0.984100 0.812700
vt 0.546200 0.374800
vt 0.546200 0.812700
vt 0.985800 0.986600
vt 0.312500 0.986600
vt 0.985800 0.919200
vt 0.312500 0.919200
vt 0.985400 0.986700
vt 0.312100 0.986700
vt 0.985400 0.919400
vt 0.312100 0.919400
vt 0.314400 0.853300
vt 0.987600 0.853300
vt 0.314400 0.920600
vt 0.987600 0.920600
vt 0.449200 0.189200
vt 0.449200 0.601900
vt 0.036400 0.189200
vt 0.036400 0.601900
vt 0.449500 0.624200
vt 0.005400 0.624200
vt 0.449500 0.603300
vt 0.005400 0.603300
vt 0.449900 0.624200
vt 0.005300 0.624200
vt 0.449900 0.603300
vt 0.005300 0.603300
vn -0.422700 0.906300 0.000000
vn -0.905700 -0.423900 0.000000
vn 0.000000 -0.000000 1.000000
vn 0.906800 0.421500 0.000000
vn 0.000000 0.000000 -1.000000
vn -0.906500 -0.422200 -0.000000
vn 0.905700 0.423900 0.000000
vn 0.422600 -0.906300 -0.000000
vn -0.422600 0.906300 0.000000
vn -0.906300 -0.422700 -0.000000
vn 0.906300 0.422700 0.000000
vn -0.906100 -0.423000 -0.000000
vn 0.906100 0.423000 0.000000
usemtl paintpress

f 101/153/25 102/154/25 104/155/25
f 102/154/25 103/156/25 104/155/25
f 105/157/26 106/158/26 101/159/26
f 106/158/26 102/160/26 101/159/26
f 106/161/27 107/162/27 102/163/27
f 107/162/27 103/164/27 102/163/27
f 107/160/28 108/159/28 103/158/28
f 108/159/28 104/157/28 103/158/28
f 108/164/29 105/163/29 104/162/29
f 105/163/29 101/161/29 104/162/29
f 109/165/25 110/166/25 112/167/25
f 110/166/25 111/168/25 112/167/25
f 113/169/30 114/170/30 109/171/30
f 114/170/30 110/172/30 109/171/30
f 114/173/27 115/174/27 110/175/27
f 115/174/27 111/176/27 110/175/27
f 115/172/28 116/171/28 111/170/28
f 116/171/28 112/169/28 111/170/28
f 116/176/29 113/175/29 112/174/29
f 113/175/29 109/173/29 112/174/29
f 117/177/25 118/178/25 120/179/25
f 118/178/25 119/180/25 120/179/25
f 121/181/26 122/182/26 117/183/26
f 122/182/26 118/184/26 117/183/26
f 122/185/27 123/186/27 118/187/27
f 123/186/27 119/188/27 118/187/27
f 123/189/31 124/190/31 119/191/31
f 124/190/31 120/192/31 119/191/31
f 124/193/29 121/194/29 120/195/29
f 121/194/29 117/196/29 120/195/29
f 125/197/25 126/198/25 128/199/25
f 126/198/25 127/200/25 128/199/25
f 129/192/26 130/191/26 125/190/26
f 130/191/26 126/189/26 125/190/26
f 130/196/27 131/195/27 126/194/27
f 131/195/27 127/193/27 126/194/27
f 131/184/31 132/183/31 127/182/31
f 132/183/31 128/181/31 127/182/31
f 132/188/29 129/187/29 128/186/29
f 129/187/29 125/185/29 128/186/29
f 133/201/32 134/202/32 136/203/32
f 134/202/32 135/204/32 136/203/32
f 137/205/33 138/206/33 140/207/33
f 138/206/33 139/208/33 140/207/33
f 133/209/34 136/210/34 137/211/34
f 136/210/34 138/212/34 137/211/34
f 136/213/27 135/214/27 138/215/27
f 135/214/27 139/216/27 138/215/27
f 135/217/35 134/218/35 139/219/35
f 134/218/35 140/220/35 139/219/35
f 134/216/29 133/215/29 140/214/29
f 133/215/29 137/213/29 140/214/29
f 141/221/32 142/222/32 144/223/32
f 142/222/32 143/224/32 144/223/32
f 141/225/36 144/226/36 146/227/36
f 144/226/36 145/228/36 146/227/36
f 144/229/27 143/230/27 145/231/27
f 143/230/27 147/232/27 145/231/27
f 143/232/37 142/231/37 147/230/37
f 142/231/37 148/229/37 147/230/37
f 142/232/29 141/231/29 148/230/29
f 141/231/29 146/229/29 148/230/29
