mtllib toolrack.mtl
o nubs
v 0.375000 0.087950 0.376950
v 0.375000 0.087950 0.433050
v 0.375000 0.144050 0.433050
v 0.375000 0.144050 0.376950
v 0.441000 0.087950 0.376950
v 0.441000 0.087950 0.433050
v 0.441000 0.144050 0.433050
v 0.441000 0.144050 0.376950
v 0.375000 0.218950 0.203950
v 0.375000 0.218950 0.260050
v 0.375000 0.275050 0.260050
v 0.375000 0.275050 0.203950
v 0.441000 0.218950 0.203950
v 0.441000 0.218950 0.260050
v 0.441000 0.275050 0.260050
v 0.441000 0.275050 0.203950
v 0.375000 0.087950 0.756950
v 0.375000 0.087950 0.813050
v 0.375000 0.144050 0.813050
v 0.375000 0.144050 0.756950
v 0.441000 0.087950 0.756950
v 0.441000 0.087950 0.813050
v 0.441000 0.144050 0.813050
v 0.441000 0.144050 0.756950
v 0.375000 0.218950 0.583950
v 0.375000 0.218950 0.640050
v 0.375000 0.275050 0.640050
v 0.375000 0.275050 0.583950
v 0.441000 0.218950 0.583950
v 0.441000 0.218950 0.640050
v 0.441000 0.275050 0.640050
v 0.441000 0.275050 0.583950
v 0.375000 0.461950 0.376950
v 0.375000 0.461950 0.433050
v 0.375000 0.518050 0.433050
v 0.375000 0.518050 0.376950
v 0.441000 0.461950 0.376950
v 0.441000 0.461950 0.433050
v 0.441000 0.518050 0.433050
v 0.441000 0.518050 0.376950
v 0.375000 0.592950 0.203950
v 0.375000 0.592950 0.260050
v 0.375000 0.649050 0.260050
v 0.375000 0.649050 0.203950
v 0.441000 0.592950 0.203950
v 0.441000 0.592950 0.260050
v 0.441000 0.649050 0.260050
v 0.441000 0.649050 0.203950
v 0.375000 0.461950 0.756950
v 0.375000 0.461950 0.813050
v 0.375000 0.518050 0.813050
v 0.375000 0.518050 0.756950
v 0.441000 0.461950 0.756950
v 0.441000 0.461950 0.813050
v 0.441000 0.518050 0.813050
v 0.441000 0.518050 0.756950
v 0.375000 0.592950 0.583950
v 0.375000 0.592950 0.640050
v 0.375000 0.649050 0.640050
v 0.375000 0.649050 0.583950
v 0.441000 0.592950 0.583950
v 0.441000 0.592950 0.640050
v 0.441000 0.649050 0.640050
v 0.441000 0.649050 0.583950
vt 1.000000 0.005125
vt 1.000000 0.993875
vt 0.000000 0.005125
vt 0.000000 0.993875
vt 1.000000 1.000000
vt 0.000000 0.000000
vt 0.000000 1.000000
vn 0.000000 -1.000000 0.000000
vn 0.000000 -0.000000 1.000000
vn 0.000000 1.000000 0.000000
vn 0.000000 0.000000 -1.000000
vn 1.000000 0.000000 0.000000
usemtl nubs

f 5/1/1 6/2/1 1/3/1
f 6/2/1 2/4/1 1/3/1
f 6/1/2 7/2/2 2/3/2
f 7/2/2 3/4/2 2/3/2
f 7/4/3 8/3/3 3/2/3
f 8/3/3 4/1/3 3/2/3
f 8/4/4 5/3/4 4/2/4
f 5/3/4 1/1/4 4/2/4
f 5/1/5 8/5/5 6/6/5
f 8/5/5 7/7/5 6/6/5
f 13/1/1 14/2/1 9/3/1
f 14/2/1 10/4/1 9/3/1
f 14/1/2 15/2/2 10/3/2
f 15/2/2 11/4/2 10/3/2
f 15/4/3 16/3/3 11/2/3
f 16/3/3 12/1/3 11/2/3
f 16/4/4 13/3/4 12/2/4
f 13/3/4 9/1/4 12/2/4
f 13/1/5 16/5/5 14/6/5
f 16/5/5 15/7/5 14/6/5
f 21/1/1 22/2/1 17/3/1
f 22/2/1 18/4/1 17/3/1
f 22/1/2 23/2/2 18/3/2
f 23/2/2 19/4/2 18/3/2
f 23/4/3 24/3/3 19/2/3
f 24/3/3 20/1/3 19/2/3
f 24/4/4 21/3/4 20/2/4
f 21/3/4 17/1/4 20/2/4
f 21/1/5 24/5/5 22/6/5
f 24/5/5 23/7/5 22/6/5
f 29/1/1 30/2/1 25/3/1
f 30/2/1 26/4/1 25/3/1
f 30/1/2 31/2/2 26/3/2
f 31/2/2 27/4/2 26/3/2
f 31/4/3 32/3/3 27/2/3
f 32/3/3 28/1/3 27/2/3
f 32/4/4 29/3/4 28/2/4
f 29/3/4 25/1/4 28/2/4
f 29/1/5 32/5/5 30/6/5
f 32/5/5 31/7/5 30/6/5
f 37/1/1 38/2/1 33/3/1
f 38/2/1 34/4/1 33/3/1
f 38/1/2 39/2/2 34/3/2
f 39/2/2 35/4/2 34/3/2
f 39/4/3 40/3/3 35/2/3
f 40/3/3 36/1/3 35/2/3
f 40/4/4 37/3/4 36/2/4
f 37/3/4 33/1/4 36/2/4
f 37/1/5 40/5/5 38/6/5
f 40/5/5 39/7/5 38/6/5
f 45/1/1 46/2/1 41/3/1
f 46/2/1 42/4/1 41/3/1
f 46/1/2 47/2/2 42/3/2
f 47/2/2 43/4/2 42/3/2
f 47/4/3 48/3/3 43/2/3
f 48/3/3 44/1/3 43/2/3
f 48/4/4 45/3/4 44/2/4
f 45/3/4 41/1/4 44/2/4
f 45/1/5 48/5/5 46/6/5
f 48/5/5 47/7/5 46/6/5
f 53/1/1 54/2/1 49/3/1
f 54/2/1 50/4/1 49/3/1
f 54/1/2 55/2/2 50/3/2
f 55/2/2 51/4/2 50/3/2
f 55/4/3 56/3/3 51/2/3
f 56/3/3 52/1/3 51/2/3
f 56/4/4 53/3/4 52/2/4
f 53/3/4 49/1/4 52/2/4
f 53/1/5 56/5/5 54/6/5
f 56/5/5 55/7/5 54/6/5
f 61/1/1 62/2/1 57/3/1
f 62/2/1 58/4/1 57/3/1
f 62/1/2 63/2/2 58/3/2
f 63/2/2 59/4/2 58/3/2
f 63/4/3 64/3/3 59/2/3
f 64/3/3 60/1/3 59/2/3
f 64/4/4 61/3/4 60/2/4
f 61/3/4 57/1/4 60/2/4
f 61/1/5 64/5/5 62/6/5
f 64/5/5 63/7/5 62/6/5
o base
v 0.000000 0.938000 0.938000
v 0.000000 0.938000 0.062000
v 0.500000 0.938000 0.062000
v 0.500000 0.938000 0.938000
v 0.000000 1.000000 1.000000
v 0.500000 1.000000 1.000000
v 0.500000 1.000000 0.000000
v 0.000000 1.000000 0.000000
v 0.000000 0.062000 0.062000
v 0.500000 0.062000 0.062000
v 0.500000 0.000000 0.000000
v 0.000000 0.000000 0.000000
v 0.000000 0.000000 1.000000
v 0.500000 0.000000 1.000000
v 0.000000 0.062000 0.938000
v 0.500000 0.062000 0.938000
v 0.375000 0.062000 0.938000
v 0.375000 0.062000 0.062000
v 0.375000 0.938000 0.062000
v 0.375000 0.938000 0.938000
vt 1.000000 0.500000
vt 0.000000 0.500000
vt 1.000000 0.000000
vt 0.000000 0.000000
vt 0.938000 0.062000
vt 0.062000 0.062000
vt 0.062000 0.000000
vt 0.938000 0.000000
vt 0.000000 0.062000
vt 1.000000 0.062000
vt 0.061900 0.002300
vt 0.939800 0.000900
vt 0.000100 0.064500
vt 1.000000 0.063000
vt 0.059900 0.002400
vt 0.889700 0.002600
vt 0.001100 0.061100
vt 0.948500 0.061300
vt 0.001300 0.001100
vt 0.968200 0.001200
vt 0.061200 0.061100
vt 0.908200 0.061100
vt 0.948600 0.061200
vt 0.001100 0.061200
vt 0.889900 0.002400
vt 0.059900 0.002500
vt 0.000000 1.000000
vt 1.000000 1.000000
vt 0.065000 0.935000
vt 0.065000 0.065000
vt 0.935000 0.935000
vt 0.935000 0.065000
vn 0.000000 -1.000000 -0.000000
vn 0.000000 1.000000 0.000000
vn 1.000000 0.000000 0.000000
vn -1.000000 0.000000 0.000000
vn 0.000000 -0.000000 1.000000
vn 0.000000 0.000000 -1.000000
usemtl wood

f 65/8/6 66/9/6 68/10/6
f 66/9/6 67/11/6 68/10/6
f 69/10/7 70/8/7 72/11/7
f 70/8/7 71/9/7 72/11/7
f 68/12/8 67/13/8 70/10/8
f 67/13/8 71/11/8 70/10/8
f 66/14/9 65/15/9 72/16/9
f 65/15/9 69/17/9 72/16/9
f 66/8/10 73/9/10 67/10/10
f 73/9/10 74/11/10 67/10/10
f 72/10/11 71/8/11 76/11/11
f 71/8/11 75/9/11 76/11/11
f 67/18/8 74/19/8 71/20/8
f 74/19/8 75/21/8 71/20/8
f 73/22/9 66/23/9 76/24/9
f 66/23/9 72/25/9 76/24/9
f 77/11/6 76/10/6 78/9/6
f 76/10/6 75/8/6 78/9/6
f 79/9/7 80/11/7 73/8/7
f 80/11/7 74/10/7 73/8/7
f 78/17/8 75/16/8 80/15/8
f 75/16/8 74/14/8 80/15/8
f 76/11/9 77/10/9 73/13/9
f 77/10/9 79/12/9 73/13/9
f 69/11/10 77/10/10 70/9/10
f 77/10/10 78/8/10 70/9/10
f 65/9/11 68/11/11 79/8/11
f 68/11/11 80/10/11 79/8/11
f 70/26/8 78/27/8 68/28/8
f 78/27/8 80/29/8 68/28/8
f 77/30/9 69/31/9 79/32/9
f 69/31/9 65/33/9 79/32/9
f 81/11/8 82/10/8 84/34/8
f 82/10/8 83/35/8 84/34/8
f 73/36/9 79/37/9 66/38/9
f 79/37/9 65/39/9 66/38/9
