mtllib bell.mtl
o bell
v 0.634820 0.000216 0.500000
v 0.595312 0.000216 0.404688
v 0.581872 0.028216 0.418128
v 0.615780 0.028216 0.500000
v 0.500000 0.000216 0.365180
v 0.500000 0.028216 0.384220
v 0.404688 0.000216 0.404688
v 0.418128 0.028216 0.418128
v 0.365180 0.000216 0.500000
v 0.384220 0.028216 0.500000
v 0.404688 0.000216 0.595312
v 0.418128 0.028216 0.581872
v 0.500000 0.000216 0.634820
v 0.500000 0.028216 0.615780
v 0.595312 0.000216 0.595312
v 0.581872 0.028216 0.581872
v 0.420816 0.112020 0.500000
v 0.444000 0.112020 0.556000
v 0.490340 0.135120 0.509660
v 0.486336 0.135120 0.500000
v 0.394272 0.070440 0.500000
v 0.425240 0.070440 0.574760
v 0.444000 0.112020 0.444000
v 0.425240 0.070440 0.425240
v 0.490340 0.135120 0.490340
v 0.500000 0.112020 0.579184
v 0.500000 0.135120 0.513664
v 0.500000 0.070440 0.605728
v 0.556000 0.112020 0.556000
v 0.574760 0.070440 0.574760
v 0.509660 0.135120 0.509660
v 0.579184 0.112020 0.500000
v 0.605728 0.070440 0.500000
v 0.513664 0.135120 0.500000
v 0.556000 0.112020 0.444000
v 0.574760 0.070440 0.425240
v 0.509660 0.135120 0.490340
v 0.500000 0.070440 0.394272
v 0.500000 0.112020 0.420816
v 0.500000 0.135120 0.486336
v 0.500000 0.032808 0.388000
v 0.420816 0.032808 0.420816
v 0.388000 0.032808 0.500000
v 0.579184 0.032808 0.420816
v 0.612000 0.032808 0.500000
v 0.579184 0.032808 0.579184
v 0.500000 0.032808 0.612000
v 0.420816 0.032808 0.579184
v 0.510641 0.176866 0.481539
v 0.489359 0.176866 0.518461
v 0.510641 0.176866 0.518461
v 0.521318 0.176866 0.500000
v 0.489359 0.176866 0.481539
v 0.478682 0.176866 0.500000
v 0.515569 0.131638 0.500000
v 0.507784 0.131638 0.486502
v 0.507784 0.170652 0.486502
v 0.515569 0.170652 0.500000
v 0.492216 0.131638 0.486502
v 0.492216 0.170652 0.486502
v 0.484431 0.131638 0.500000
v 0.484431 0.170652 0.500000
v 0.492216 0.131638 0.513498
v 0.492216 0.170652 0.513498
v 0.507784 0.131638 0.513498
v 0.507784 0.170652 0.513498
vt 0.147309 0.225000
vt 0.209243 0.075588
vt 0.177157 0.225000
vt 0.230311 0.096657
vt 0.358655 0.013655
vt 0.358655 0.043502
vt 0.508067 0.075588
vt 0.486998 0.096657
vt 0.570000 0.225000
vt 0.540153 0.225000
vt 0.508067 0.374412
vt 0.486998 0.353343
vt 0.358655 0.436345
vt 0.358655 0.406498
vt 0.209243 0.374412
vt 0.230311 0.353343
vt 0.930757 0.374412
vt 0.781345 0.436345
vt 0.631933 0.374412
vt 0.631933 0.075588
vt 0.992691 0.225000
vt 0.781345 0.013655
vt 0.930757 0.075588
vt 0.990500 0.769100
vt 0.947241 0.873591
vt 0.868246 0.769100
vt 0.860775 0.787125
vt 0.842750 0.528282
vt 0.982245 0.528282
vt 0.842750 0.621350
vt 0.947241 0.621350
vt 0.738259 0.621350
vt 0.703255 0.528282
vt 0.860775 0.751075
vt 0.947241 0.664609
vt 0.842750 0.916850
vt 0.842750 0.794596
vt 0.407755 0.528282
vt 0.547250 0.528282
vt 0.442759 0.621350
vt 0.547250 0.621350
vt 0.651741 0.621350
vt 0.686745 0.528282
vt 0.824725 0.787125
vt 0.738259 0.873591
vt 0.547250 0.798650
vt 0.442759 0.798650
vt 0.547250 0.705582
vt 0.407755 0.705582
vt 0.817254 0.769100
vt 0.695000 0.769100
vt 0.651741 0.798650
vt 0.686745 0.705582
vt 0.824725 0.751075
vt 0.738259 0.664609
vt 0.407755 0.882882
vt 0.547250 0.882882
vt 0.442759 0.975950
vt 0.547250 0.975950
vt 0.842750 0.743604
vt 0.686745 0.882882
vt 0.651741 0.975950
vt 0.695000 0.798650
vt 0.695000 0.444050
vt 0.842750 0.444050
vt 0.399500 0.798650
vt 0.695000 0.621350
vt 0.399500 0.621350
vt 0.547250 0.444050
vt 0.399500 0.444050
vt 0.990500 0.444050
vt 0.057669 0.298855
vt 0.160332 0.475145
vt 0.006164 0.387000
vt 0.057669 0.475145
vt 0.160332 0.298855
vt 0.211836 0.387000
vt 0.112000 0.489653
vt 0.190257 0.489653
vt 0.112000 0.700731
vt 0.190257 0.700731
vt 0.260304 0.727653
vt 0.349695 0.727653
vt 0.260304 0.938731
vt 0.349695 0.938731
vt 0.041743 0.747653
vt 0.120000 0.747653
vt 0.041743 0.958731
vt 0.120000 0.958731
vt 0.198258 0.747653
vt 0.198258 0.958731
vt 0.255305 0.457653
vt 0.344696 0.457653
vt 0.255305 0.668731
vt 0.344696 0.668731
vt 0.033742 0.489653
vt 0.033742 0.700731
vt 0.112000 0.734347
vt 0.219035 0.734347
vt 0.243903 0.972347
vt 0.366097 0.972347
vt 0.012965 0.992347
vt 0.120000 0.992347
vt 0.227035 0.992347
vt 0.238903 0.702347
vt 0.361097 0.702347
vt 0.004965 0.734347
vn 0.827000 0.562200 -0.000100
vn 0.584800 0.562000 -0.585000
vn 0.585100 0.561700 -0.584900
vn -0.000100 0.562200 -0.827000
vn -0.585000 0.561700 -0.585100
vn -0.585000 0.561900 -0.584900
vn -0.827000 0.562200 0.000100
vn -0.584800 0.562000 0.585000
vn -0.584900 0.561900 0.585000
vn -0.000100 0.562000 0.827100
vn 0.000100 0.562200 0.827000
vn 0.585000 0.561700 0.585100
vn 0.584900 0.561700 0.585100
vn 0.000000 1.000000 0.000000
vn 0.000000 -1.000000 -0.000000
vn -0.518400 0.847000 0.117400
vn -0.449600 0.847000 0.283500
vn -0.332500 0.943100 -0.000100
vn -0.235100 0.943100 0.235100
vn -0.897900 0.418700 0.135700
vn -0.730800 0.418600 0.539100
vn -0.700900 0.711600 0.049800
vn -0.530800 0.711500 0.460400
vn -0.700900 0.711600 -0.049700
vn -0.530800 0.711600 -0.460400
vn -0.897900 0.418700 -0.135600
vn -0.730800 0.418700 -0.539100
vn -0.235100 0.943100 -0.235200
vn -0.518400 0.847000 -0.117500
vn -0.449600 0.847000 -0.283500
vn -0.283500 0.847000 0.449700
vn -0.117500 0.847000 0.518400
vn 0.000100 0.943100 0.332400
vn -0.539000 0.418700 0.730800
vn -0.135700 0.418600 0.898000
vn -0.460400 0.711500 0.530800
vn -0.049800 0.711400 0.701000
vn 0.460400 0.711500 0.530800
vn 0.049700 0.711500 0.701000
vn 0.539100 0.418700 0.730800
vn 0.135600 0.418600 0.898000
vn 0.235100 0.943100 0.235100
vn 0.000000 0.943100 0.332400
vn 0.283500 0.847000 0.449700
vn 0.117500 0.847000 0.518500
vn 0.700900 0.711500 0.049800
vn 0.530800 0.711500 0.460500
vn 0.897900 0.418700 0.135600
vn 0.730800 0.418700 0.539100
vn 0.332400 0.943100 0.000000
vn 0.518400 0.847000 0.117400
vn 0.449700 0.847000 0.283400
vn 0.530900 0.711500 -0.460400
vn 0.700900 0.711500 -0.049800
vn 0.730800 0.418700 -0.539100
vn 0.897900 0.418700 -0.135600
vn 0.235000 0.943100 -0.235100
vn 0.449700 0.847000 -0.283500
vn 0.518500 0.847000 -0.117400
vn 0.539200 0.418700 -0.730800
vn 0.135600 0.418700 -0.897900
vn 0.460500 0.711500 -0.530800
vn 0.049800 0.711500 -0.700900
vn 0.283500 0.847000 -0.449700
vn 0.117500 0.847000 -0.518400
vn -0.000000 0.943100 -0.332500
vn -0.135600 0.418600 -0.898000
vn -0.539100 0.418700 -0.730800
vn -0.049700 0.711500 -0.700900
vn -0.460400 0.711600 -0.530700
vn -0.117500 0.847000 -0.518400
vn -0.283500 0.847000 -0.449700
vn -0.360500 0.336000 -0.870200
vn -0.360400 0.336000 -0.870200
vn -0.378300 0.151800 -0.913200
vn -0.378200 0.151700 -0.913200
vn -0.913100 0.151800 -0.378400
vn -0.870200 0.336000 -0.360500
vn -0.913100 0.152200 -0.378200
vn -0.870200 0.336000 -0.360400
vn 0.360400 0.336000 -0.870100
vn 0.360500 0.336000 -0.870100
vn 0.378200 0.152200 -0.913100
vn 0.360400 0.336100 -0.870100
vn 0.378200 0.152300 -0.913100
vn 0.913100 0.152200 -0.378400
vn 0.870100 0.336000 -0.360500
vn 0.913100 0.152100 -0.378400
vn 0.870200 0.336000 -0.360500
vn 0.870200 0.336000 -0.360400
vn 0.870100 0.336200 0.360400
vn 0.870100 0.336200 0.360300
vn 0.913100 0.152200 0.378200
vn 0.913100 0.151800 0.378400
vn 0.378400 0.152200 0.913100
vn 0.360400 0.336000 0.870100
vn 0.378300 0.151800 0.913200
vn 0.360500 0.336000 0.870200
vn 0.360400 0.336000 0.870200
vn -0.360400 0.336000 0.870100
vn -0.360500 0.336000 0.870100
vn -0.378200 0.152200 0.913100
vn -0.360400 0.336100 0.870100
vn -0.378200 0.152300 0.913100
vn -0.870200 0.336000 0.360500
vn -0.870200 0.336000 0.360400
vn -0.913200 0.151800 0.378300
vn -0.913200 0.151700 0.378200
vn 0.866300 0.000000 -0.499600
vn 0.817300 -0.331400 -0.471400
vn 0.817300 -0.331500 -0.471400
vn 0.000000 0.000000 -1.000000
vn 0.000000 -0.330700 -0.943700
vn -0.866300 0.000000 -0.499600
vn -0.817700 -0.330300 -0.471600
vn -0.817700 -0.330200 -0.471600
vn -0.866300 0.000000 0.499600
vn -0.817300 -0.331400 0.471400
vn 0.000000 0.000000 1.000000
vn 0.000000 -0.330700 0.943700
vn 0.866300 0.000000 0.499600
vn 0.817700 -0.330300 0.471600
vn 0.817700 -0.330200 0.471600
vn 0.675900 -0.625400 -0.389800
vn 0.000000 -0.624100 -0.781300
vn -0.677200 -0.623500 -0.390600
vn -0.677300 -0.623500 -0.390600
vn -0.676000 -0.625300 0.390000
vn -0.675900 -0.625400 0.389800
vn 0.000000 -0.624100 0.781300
vn 0.677200 -0.623500 0.390600
vn 0.677300 -0.623400 0.390600
usemtl Default

f 1/1/1 2/2/2 4/3/1
f 2/2/2 3/4/3 4/3/1
f 2/2/2 5/5/4 3/4/3
f 5/5/4 6/6/4 3/4/3
f 5/5/4 7/7/5 6/6/4
f 7/7/5 8/8/6 6/6/4
f 7/7/5 9/9/7 8/8/6
f 9/9/7 10/10/7 8/8/6
f 9/9/7 11/11/8 10/10/7
f 11/11/8 12/12/9 10/10/7
f 11/11/8 13/13/10 12/12/9
f 13/13/10 14/14/11 12/12/9
f 13/13/10 15/15/12 14/14/11
f 15/15/12 16/16/13 14/14/11
f 15/15/12 1/1/1 16/16/13
f 1/1/1 4/3/1 16/16/13
f 4/3/14 3/4/14 8/8/14
f 3/4/14 6/6/14 8/8/14
f 10/10/14 16/16/14 8/8/14
f 16/16/14 4/3/14 8/8/14
f 10/10/14 12/12/14 16/16/14
f 12/12/14 14/14/14 16/16/14
f 15/17/15 13/18/15 9/9/15
f 13/18/15 11/19/15 9/9/15
f 7/20/15 1/21/15 9/9/15
f 1/21/15 15/17/15 9/9/15
f 7/20/15 5/22/15 1/21/15
f 5/22/15 2/23/15 1/21/15
f 17/24/16 18/25/17 20/26/18
f 18/25/17 19/27/19 20/26/18
f 21/28/20 22/29/21 17/30/22
f 22/29/21 18/31/23 17/30/22
f 17/30/24 23/32/25 21/28/26
f 23/32/25 24/33/27 21/28/26
f 20/26/18 25/34/28 17/24/29
f 25/34/28 23/35/30 17/24/29
f 18/25/31 26/36/32 19/27/19
f 26/36/32 27/37/33 19/27/19
f 22/38/34 28/39/35 18/40/36
f 28/39/35 26/41/37 18/40/36
f 29/42/38 26/41/39 30/43/40
f 26/41/39 28/39/41 30/43/40
f 31/44/42 27/37/43 29/45/44
f 27/37/43 26/36/45 29/45/44
f 32/46/46 29/47/47 33/48/48
f 29/47/47 30/49/49 33/48/48
f 34/50/50 31/44/42 32/51/51
f 31/44/42 29/45/52 32/51/51
f 35/52/53 32/46/54 36/53/55
f 32/46/54 33/48/56 36/53/55
f 37/54/57 34/50/50 35/55/58
f 34/50/50 32/51/59 35/55/58
f 36/56/60 38/57/61 35/58/62
f 38/57/61 39/59/63 35/58/62
f 35/55/64 39/30/65 37/54/57
f 39/30/65 40/60/66 37/54/57
f 38/57/67 24/61/68 39/59/69
f 24/61/68 23/62/70 39/59/69
f 39/30/71 23/35/72 40/60/66
f 23/35/72 25/34/28 40/60/66
f 24/61/73 38/57/74 42/63/75
f 38/57/73 41/46/76 42/63/76
f 42/64/77 43/65/77 24/33/78
f 43/65/79 21/28/78 24/33/80
f 38/57/81 36/56/82 41/46/83
f 36/56/84 44/66/85 41/46/85
f 45/41/86 44/67/86 33/48/87
f 44/67/88 36/53/89 33/48/90
f 33/48/91 30/49/92 45/41/93
f 30/49/91 46/68/94 45/41/94
f 47/69/95 46/64/95 28/39/96
f 46/64/97 30/43/98 28/39/99
f 28/39/100 22/38/101 47/69/102
f 22/38/103 48/70/104 47/69/104
f 22/29/105 21/28/106 48/71/107
f 21/28/105 43/65/108 48/71/108
f 49/72/14 50/73/14 52/74/14
f 50/73/14 51/75/14 52/74/14
f 49/72/14 53/76/14 50/73/14
f 53/76/14 54/77/14 50/73/14
f 55/78/109 56/79/109 58/80/110
f 56/79/109 57/81/110 58/80/111
f 56/82/112 59/83/112 57/84/113
f 59/83/112 60/85/113 57/84/113
f 59/86/114 61/87/114 60/88/115
f 61/87/114 62/89/115 60/88/116
f 61/87/117 63/90/117 62/89/118
f 63/90/117 64/91/118 62/89/118
f 63/92/119 65/93/119 64/94/120
f 65/93/119 66/95/120 64/94/120
f 65/96/121 55/78/121 66/97/122
f 55/78/121 58/80/123 66/97/123
f 58/80/111 57/81/110 52/98/124
f 57/81/110 49/99/124 52/98/124
f 57/84/113 60/85/113 49/100/125
f 60/85/113 53/101/125 49/100/125
f 60/88/116 62/89/115 53/102/126
f 62/89/115 54/103/127 53/102/126
f 62/89/118 64/91/118 54/103/128
f 64/91/118 50/104/129 54/103/128
f 64/94/120 66/95/120 50/105/130
f 66/95/120 51/106/130 50/105/130
f 66/97/123 58/80/123 51/107/131
f 58/80/123 52/98/132 51/107/131
