mtllib fancyworkbench.mtl
o sides
v 1.000000 0.250000 0.000000
v 0.500000 0.250000 0.000000
v 0.500000 0.750000 0.000000
v 1.000000 0.750000 0.000000
v 0.500000 0.250000 1.000000
v 1.000000 0.250000 1.000000
v 1.000000 0.750000 1.000000
v 0.500000 0.750000 1.000000
v 0.000000 0.250000 1.000000
v 0.000000 0.750000 1.000000
v 0.000000 0.250000 0.000000
v 0.000000 0.750000 0.000000
v 1.000000 0.250000 0.031300
v 1.000000 0.750000 0.031300
v 1.000000 0.250000 0.968700
v 1.000000 0.750000 0.968700
vt 0.001900 0.000700
vt 0.344100 0.000700
vt 0.001900 0.343000
vt 0.344100 0.343000
vt 0.344000 0.655100
vt 0.003400 0.655200
vt 0.344000 0.995800
vt 0.003400 0.995800
vt 0.686300 0.653600
vt 0.344000 0.653600
vt 0.686300 0.995800
vt 0.686300 0.000700
vt 0.344100 0.342900
vt 0.686300 0.342900
vt 0.686000 0.346900
vt 0.001600 0.346900
vt 0.686000 0.650100
vt 0.001600 0.650100
vt 0.002500 0.997200
vt 0.002500 0.976000
vt 0.681800 0.997200
vt 0.681800 0.976000
vn 0.000000 0.000000 -1.000000
vn 0.000000 -0.000000 1.000000
vn -1.000000 0.000000 0.000000
vn 1.000000 0.000000 0.000000
usemtl sides

f 1/1/1 2/2/1 4/3/1
f 2/2/1 3/4/1 4/3/1
f 5/5/2 6/6/2 8/7/2
f 6/6/2 7/8/2 8/7/2
f 9/9/2 5/10/2 10/11/2
f 5/10/2 8/7/2 10/11/2
f 2/2/1 11/12/1 3/13/1
f 11/12/1 12/14/1 3/13/1
f 11/15/3 9/16/3 12/17/3
f 9/16/3 10/18/3 12/17/3
f 13/19/4 1/20/4 14/21/4
f 1/20/4 4/22/4 14/21/4
f 6/19/4 15/20/4 7/21/4
f 15/20/4 16/22/4 7/21/4
o book7
v 0.971700 0.250500 0.155600
v 0.971700 0.250500 0.280600
v 0.596700 0.250500 0.280600
v 0.596700 0.250500 0.155600
v 0.971700 0.625500 0.155600
v 0.596700 0.625500 0.155600
v 0.596700 0.625500 0.280600
v 0.971700 0.625500 0.280600
vt 0.625200 0.318700
vt 0.655200 0.318700
vt 0.625200 0.228600
vt 0.655200 0.228600
vt 0.718900 0.226200
vt 0.625800 0.226200
vt 0.718900 0.133100
vt 0.625800 0.133100
vt 0.593700 0.133200
vt 0.624600 0.133200
vt 0.593700 0.225900
vt 0.624600 0.225900
vt 0.592800 0.225400
vt 0.501400 0.225400
vt 0.592800 0.134100
vt 0.501400 0.134100
vt 0.750000 0.225900
vt 0.719100 0.225900
vt 0.750000 0.133200
vt 0.719100 0.133200
vn 0.000000 -1.000000 -0.000000
vn 0.000000 1.000000 0.000000
vn 0.000000 0.000000 -1.000000
vn -1.000000 0.000000 0.000000
vn 0.000000 -0.000000 1.000000
vn 1.000000 0.000000 0.000000
usemtl books

f 17/23/5 18/24/5 20/25/5
f 18/24/5 19/26/5 20/25/5
f 21/24/6 22/26/6 24/23/6
f 22/26/6 23/25/6 24/23/6
f 17/27/7 20/28/7 21/29/7
f 20/28/7 22/30/7 21/29/7
f 20/31/8 19/32/8 22/33/8
f 19/32/8 23/34/8 22/33/8
f 19/35/9 18/36/9 23/37/9
f 18/36/9 24/38/9 23/37/9
f 18/39/10 17/40/10 24/41/10
f 17/40/10 21/42/10 24/41/10
o book8
v 0.948800 0.249400 0.029700
v 0.948800 0.249400 0.154700
v 0.573800 0.249400 0.154700
v 0.573800 0.249400 0.029700
v 0.948800 0.655700 0.029700
v 0.573800 0.655700 0.029700
v 0.573800 0.655700 0.154700
v 0.948800 0.655700 0.154700
vt 0.126100 0.983800
vt 0.156600 0.983800
vt 0.126100 0.892300
vt 0.156600 0.892300
vt 0.155600 0.982200
vt 0.155600 0.894500
vt 0.126300 0.982200
vt 0.126300 0.894500
vt 0.127100 0.889100
vt 0.217700 0.889100
vt 0.127100 0.791000
vt 0.217700 0.791000
vt 0.123700 0.883400
vt 0.094600 0.883400
vt 0.123700 0.788900
vt 0.094600 0.788900
vt 0.096900 0.790000
vt 0.004600 0.790000
vt 0.096900 0.890000
vt 0.004600 0.890000
vt 0.249800 0.890400
vt 0.218700 0.890400
vt 0.249800 0.789400
vt 0.218700 0.789400
vn 0.000000 -1.000000 0.000000
vn 0.000000 1.000000 0.000000
vn 0.000000 0.000000 -1.000000
vn -1.000000 0.000000 0.000000
vn 0.000000 -0.000000 1.000000
vn 1.000000 0.000000 0.000000
usemtl books

f 25/43/11 26/44/11 28/45/11
f 26/44/11 27/46/11 28/45/11
f 29/47/12 30/48/12 32/49/12
f 30/48/12 31/50/12 32/49/12
f 25/51/13 28/52/13 29/53/13
f 28/52/13 30/54/13 29/53/13
f 28/55/14 27/56/14 30/57/14
f 27/56/14 31/58/14 30/57/14
f 27/59/15 26/60/15 31/61/15
f 26/60/15 32/62/15 31/61/15
f 26/63/16 25/64/16 32/65/16
f 25/64/16 29/66/16 32/65/16
o book3
v 0.925000 0.250700 0.624500
v 0.925000 0.250700 0.718300
v 0.550000 0.250700 0.718300
v 0.550000 0.250700 0.624500
v 0.925000 0.625700 0.624500
v 0.550000 0.625700 0.624500
v 0.550000 0.625700 0.718300
v 0.925000 0.625700 0.718300
vt 0.617800 0.544700
vt 0.639700 0.544700
vt 0.617800 0.457000
vt 0.639700 0.457000
vt 0.639700 0.544900
vt 0.639700 0.457200
vt 0.617800 0.544900
vt 0.617800 0.457200
vt 0.618200 0.444900
vt 0.710300 0.444900
vt 0.618200 0.352800
vt 0.710300 0.352800
vt 0.616900 0.354900
vt 0.594400 0.354900
vt 0.616900 0.445100
vt 0.594400 0.445100
vt 0.593000 0.353500
vt 0.501500 0.353500
vt 0.593000 0.445000
vt 0.501500 0.445000
vt 0.711200 0.445000
vt 0.734200 0.445000
vt 0.711200 0.352900
vt 0.734200 0.352900
vn 0.000000 -1.000000 0.000000
vn 0.000000 1.000000 0.000000
vn 0.000000 0.000000 -1.000000
vn -1.000000 0.000000 0.000000
vn 0.000000 -0.000000 1.000000
vn 1.000000 0.000000 0.000000
usemtl books

f 33/67/17 34/68/17 36/69/17
f 34/68/17 35/70/17 36/69/17
f 37/71/18 38/72/18 40/73/18
f 38/72/18 39/74/18 40/73/18
f 33/75/19 36/76/19 37/77/19
f 36/76/19 38/78/19 37/77/19
f 36/79/20 35/80/20 38/81/20
f 35/80/20 39/82/20 38/81/20
f 35/83/21 34/84/21 39/85/21
f 34/84/21 40/86/21 39/85/21
f 34/87/22 33/88/22 40/89/22
f 33/88/22 37/90/22 40/89/22
o book4
v 0.979300 0.251000 0.531000
v 0.979300 0.251000 0.624700
v 0.604300 0.251000 0.624700
v 0.604300 0.251000 0.531000
v 0.979300 0.657300 0.531000
v 0.604300 0.657300 0.531000
v 0.604300 0.657300 0.624700
v 0.979300 0.657300 0.624700
vt 0.639600 0.763400
vt 0.617200 0.763400
vt 0.639600 0.673800
vt 0.617200 0.673800
vt 0.618200 0.761700
vt 0.618200 0.674700
vt 0.639900 0.761700
vt 0.639900 0.674700
vt 0.710900 0.670600
vt 0.620400 0.670600
vt 0.710900 0.572500
vt 0.620400 0.572500
vt 0.594400 0.572400
vt 0.617000 0.572400
vt 0.594400 0.670000
vt 0.617000 0.670000
vt 0.502600 0.572100
vt 0.593700 0.572100
vt 0.502600 0.670900
vt 0.593700 0.670900
vt 0.734200 0.670400
vt 0.711700 0.670400
vt 0.734200 0.572900
vt 0.711700 0.572900
vn 0.000000 -1.000000 0.000000
vn 0.000000 1.000000 0.000000
vn 0.000000 0.000000 -1.000000
vn -1.000000 0.000000 0.000000
vn 0.000000 -0.000000 1.000000
vn 1.000000 0.000000 0.000000
usemtl books

f 41/91/23 42/92/23 44/93/23
f 42/92/23 43/94/23 44/93/23
f 45/95/24 46/96/24 48/97/24
f 46/96/24 47/98/24 48/97/24
f 41/99/25 44/100/25 45/101/25
f 44/100/25 46/102/25 45/101/25
f 44/103/26 43/104/26 46/105/26
f 43/104/26 47/106/26 46/105/26
f 43/107/27 42/108/27 47/109/27
f 42/108/27 48/110/27 47/109/27
f 42/111/28 41/112/28 48/113/28
f 41/112/28 45/114/28 48/113/28
o book2
v 0.948800 0.250400 0.717300
v 0.948800 0.250400 0.842300
v 0.573800 0.250400 0.842300
v 0.573800 0.250400 0.717300
v 0.948800 0.625400 0.717300
v 0.573800 0.625400 0.717300
v 0.573800 0.625400 0.842300
v 0.948800 0.625400 0.842300
vt 0.375800 0.763400
vt 0.405500 0.763400
vt 0.375800 0.674300
vt 0.405500 0.674300
vt 0.406300 0.763800
vt 0.406300 0.674700
vt 0.376600 0.763800
vt 0.376600 0.674700
vt 0.468200 0.670700
vt 0.379100 0.670700
vt 0.468200 0.581600
vt 0.379100 0.581600
vt 0.374600 0.669800
vt 0.344900 0.669800
vt 0.374600 0.580700
vt 0.344900 0.580700
vt 0.340800 0.670400
vt 0.251700 0.670400
vt 0.340800 0.581300
vt 0.251700 0.581300
vt 0.498700 0.581600
vt 0.469000 0.581600
vt 0.498700 0.670700
vt 0.469000 0.670700
vn 0.000000 -1.000000 -0.000000
vn 0.000000 1.000000 0.000000
vn 0.000000 0.000000 -1.000000
vn -1.000000 0.000000 0.000000
vn 0.000000 0.000000 1.000000
vn 1.000000 0.000000 0.000000
usemtl books

f 49/115/29 50/116/29 52/117/29
f 50/116/29 51/118/29 52/117/29
f 53/119/30 54/120/30 56/121/30
f 54/120/30 55/122/30 56/121/30
f 49/123/31 52/124/31 53/125/31
f 52/124/31 54/126/31 53/125/31
f 52/127/32 51/128/32 54/129/32
f 51/128/32 55/130/32 54/129/32
f 51/131/33 50/132/33 55/133/33
f 50/132/33 56/134/33 55/133/33
f 50/135/34 49/136/34 56/137/34
f 49/136/34 53/138/34 56/137/34
o book6
v 0.940200 0.250500 0.280500
v 0.940200 0.250500 0.405500
v 0.565200 0.250500 0.405500
v 0.565200 0.250500 0.280500
v 0.940200 0.656700 0.280500
v 0.565200 0.656700 0.280500
v 0.565200 0.656700 0.405500
v 0.940200 0.656700 0.405500
vt 0.376300 0.318600
vt 0.405200 0.318600
vt 0.376300 0.231700
vt 0.405200 0.231700
vt 0.468200 0.225700
vt 0.375800 0.225700
vt 0.468200 0.125600
vt 0.375800 0.125600
vt 0.374600 0.225800
vt 0.343800 0.225800
vt 0.374600 0.125700
vt 0.343800 0.125700
vt 0.250800 0.225300
vt 0.343200 0.225300
vt 0.250800 0.125200
vt 0.343200 0.125200
vt 0.468900 0.125600
vt 0.499700 0.125600
vt 0.468900 0.225700
vt 0.499700 0.225700
vn 0.000000 -1.000000 0.000000
vn 0.000000 1.000000 0.000000
vn 0.000000 0.000000 -1.000000
vn -1.000000 0.000000 0.000000
vn 0.000000 -0.000000 1.000000
vn 1.000000 0.000000 0.000000
usemtl books

f 57/139/35 58/140/35 60/141/35
f 58/140/35 59/142/35 60/141/35
f 61/140/36 62/142/36 64/139/36
f 62/142/36 63/141/36 64/139/36
f 57/143/37 60/144/37 61/145/37
f 60/144/37 62/146/37 61/145/37
f 60/147/38 59/148/38 62/149/38
f 59/148/38 63/150/38 62/149/38
f 59/151/39 58/152/39 63/153/39
f 58/152/39 64/154/39 63/153/39
f 58/155/40 57/156/40 64/157/40
f 57/156/40 61/158/40 64/157/40
o book1
v 0.948100 0.250500 0.842000
v 0.948100 0.250500 0.967000
v 0.573100 0.250500 0.967000
v 0.573100 0.250500 0.842000
v 0.948100 0.688000 0.842000
v 0.573100 0.688000 0.842000
v 0.573100 0.688000 0.967000
v 0.948100 0.688000 0.967000
vt 0.375300 0.544800
vt 0.405800 0.544800
vt 0.375300 0.453300
vt 0.405800 0.453300
vt 0.405800 0.545300
vt 0.405800 0.453700
vt 0.375300 0.545300
vt 0.375300 0.453700
vt 0.468700 0.452900
vt 0.375400 0.452900
vt 0.468700 0.344100
vt 0.375400 0.344100
vt 0.375100 0.452900
vt 0.344000 0.452900
vt 0.375100 0.344100
vt 0.344000 0.344100
vt 0.250600 0.452900
vt 0.343900 0.452900
vt 0.250600 0.344100
vt 0.343900 0.344100
vt 0.468700 0.344200
vt 0.499800 0.344200
vt 0.468700 0.453000
vt 0.499800 0.453000
vn 0.000000 -1.000000 -0.000000
vn 0.000000 1.000000 0.000000
vn 0.000000 0.000000 -1.000000
vn -1.000000 0.000000 0.000000
vn 0.000000 -0.000000 1.000000
vn 1.000000 0.000000 0.000000
usemtl books

f 65/159/41 66/160/41 68/161/41
f 66/160/41 67/162/41 68/161/41
f 69/163/42 70/164/42 72/165/42
f 70/164/42 71/166/42 72/165/42
f 65/167/43 68/168/43 69/169/43
f 68/168/43 70/170/43 69/169/43
f 68/171/44 67/172/44 70/173/44
f 67/172/44 71/174/44 70/173/44
f 67/175/45 66/176/45 71/177/45
f 66/176/45 72/178/45 71/177/45
f 66/179/46 65/180/46 72/181/46
f 65/180/46 69/182/46 72/181/46
o top
v 0.000000 1.000000 1.000000
v 1.000000 1.000000 1.000000
v 1.000000 1.000000 0.000000
v 0.000000 1.000000 0.000000
v 0.000000 0.950000 1.000000
v 1.000000 0.950000 1.000000
v 1.000000 0.950000 0.000000
v 0.000000 0.950000 0.000000
v 0.000000 0.900000 1.000000
v 1.000000 0.900000 1.000000
v 1.000000 0.900000 0.000000
v 0.000000 0.900000 0.000000
vt 0.000000 1.000000
vt -0.000000 0.000000
vt 1.000000 1.000000
vt 1.000000 -0.000000
vt 0.002700 0.949925
vt 0.997700 0.949925
vt 0.002700 0.999675
vt 0.997700 0.999675
vt 0.000000 0.050000
vt 1.000000 0.050000
vn 0.000000 1.000000 0.000000
vn 0.000000 0.000000 1.000000
vn 1.000000 0.000000 0.000000
vn 0.000000 0.000000 -1.000000
vn -1.000000 0.000000 0.000000
vn 0.000000 -1.000000 -0.000000
usemtl top

f 73/183/47 74/184/47 76/185/47
f 74/184/47 75/186/47 76/185/47
f 77/187/48 78/188/48 73/189/48
f 78/188/48 74/190/48 73/189/48
f 78/184/49 79/186/49 74/191/49
f 79/186/49 75/192/49 74/191/49
f 79/190/50 80/189/50 75/188/50
f 80/189/50 76/187/50 75/188/50
f 80/190/51 77/189/51 76/188/51
f 77/189/51 73/187/51 76/188/51
f 81/183/47 82/184/47 84/185/47
f 82/184/47 83/186/47 84/185/47
f 77/185/52 80/183/52 78/186/52
f 80/183/52 79/184/52 78/186/52
o bench
v 0.500000 0.250000 0.000000
v 0.500000 0.250000 0.031300
v 0.500000 0.750000 0.031300
v 0.500000 0.750000 0.000000
v 1.000000 0.250000 0.031300
v 1.000000 0.750000 0.031300
v 1.000000 0.250000 0.968700
v 0.500000 0.250000 0.968700
v 0.500000 0.750000 0.968700
v 1.000000 0.750000 0.968700
v 0.500000 0.250000 1.000000
v 0.500000 0.750000 1.000000
v 0.000000 0.750000 1.000000
v 0.000000 0.750000 0.000000
v 1.000000 0.750000 0.000000
v 1.000000 0.750000 1.000000
v 1.000000 0.900000 1.000000
v 0.000000 0.900000 1.000000
v 1.000000 0.900000 0.000000
v 0.000000 0.900000 0.000000
v 0.047300 0.900900 0.952700
v 0.952700 0.900900 0.952700
v 0.952700 0.950900 0.952700
v 0.047300 0.950900 0.952700
v 0.952700 0.900900 0.047300
v 0.952700 0.950900 0.047300
v 0.047300 0.900900 0.047300
v 0.047300 0.950900 0.047300
v 0.000000 -0.000000 1.000000
v 0.000000 0.000000 0.000000
v 1.000000 0.000000 0.000000
v 1.000000 -0.000000 1.000000
v 0.000000 0.250000 1.000000
v 1.000000 0.250000 1.000000
v 1.000000 0.250000 0.000000
v 0.000000 0.250000 0.000000
vt 0.001000 0.000500
vt 0.062200 0.000500
vt 0.001000 0.999500
vt 0.062200 0.999500
vt 0.000000 0.500000
vt 0.000000 0.000000
vt 1.000000 0.500000
vt 1.000000 0.000000
vt 0.938200 0.000500
vt 0.999400 0.000500
vt 0.938200 0.999500
vt 0.999400 0.999500
vt 0.001400 0.001000
vt 0.998400 0.000600
vt 0.001600 0.499500
vt 0.998600 0.499100
vt 0.994000 0.993300
vt 0.001300 0.993300
vt 0.994000 0.000600
vt 0.001300 0.000600
vt 0.002600 0.149625
vt 0.997600 0.149625
vt 0.002600 0.000375
vt 0.997600 0.000375
vt 0.998896 0.150074
vt 0.002702 0.150074
vt 0.998896 0.000625
vt 0.002702 0.000625
vt 1.000000 0.150000
vt 0.000000 0.150000
vt 0.000000 0.055200
vt 1.000000 0.055200
vt 1.000000 1.000000
vt 0.000000 1.000000
vt 0.000000 0.250000
vt 1.000000 0.250000
vt 0.002600 0.000625
vt 0.997600 0.000625
vt 0.002600 0.249375
vt 0.997600 0.249375
vt 0.998697 0.000625
vt 0.002504 0.000625
vt 0.998697 0.249574
vt 0.002504 0.249574
vn -1.000000 0.000000 -0.000700
vn 0.000000 -0.000000 1.000000
vn 0.000000 0.000000 -1.000000
vn -1.000000 0.000000 0.000700
vn 1.000000 0.000000 0.000000
vn 0.000000 -1.000000 -0.000000
vn -1.000000 0.000000 0.000000
vn 0.000000 1.000000 0.000000
usemtl wood

f 85/193/53 86/194/53 88/195/53
f 86/194/53 87/196/53 88/195/53
f 86/197/54 89/198/54 87/199/54
f 89/198/54 90/200/54 87/199/54
f 91/200/55 92/199/55 94/198/55
f 92/199/55 93/197/55 94/198/55
f 92/201/56 95/202/56 93/203/56
f 95/202/56 96/204/56 93/203/56
f 95/205/57 85/206/57 96/207/57
f 85/206/57 88/208/57 96/207/57
f 97/209/58 98/210/58 100/211/58
f 98/210/58 99/212/58 100/211/58
f 97/213/54 100/214/54 102/215/54
f 100/214/54 101/216/54 102/215/54
f 100/213/57 99/214/57 101/215/57
f 99/214/57 103/216/57 101/215/57
f 99/217/55 98/218/55 103/219/55
f 98/218/55 104/220/55 103/219/55
f 98/221/59 97/222/59 104/200/59
f 97/222/59 102/198/59 104/200/59
f 105/198/54 106/200/54 108/223/54
f 106/200/54 107/224/54 108/223/54
f 106/198/57 109/200/57 107/223/57
f 109/200/57 110/224/57 107/223/57
f 109/224/55 111/223/55 110/200/55
f 111/223/55 112/198/55 110/200/55
f 111/224/59 105/223/59 112/200/59
f 105/223/59 108/198/59 112/200/59
f 113/225/58 114/226/58 116/200/58
f 114/226/58 115/198/58 116/200/58
f 117/210/60 118/212/60 120/209/60
f 118/212/60 119/211/60 120/209/60
f 113/198/54 116/200/54 117/227/54
f 116/200/54 118/228/54 117/227/54
f 116/229/57 115/230/57 118/231/57
f 115/230/57 119/232/57 118/231/57
f 115/233/55 114/234/55 119/235/55
f 114/234/55 120/236/55 119/235/55
f 114/230/59 113/229/59 120/232/59
f 113/229/59 117/231/59 120/232/59
o book5
v 0.955000 0.250100 0.406400
v 0.955000 0.250100 0.531400
v 0.580000 0.250100 0.531400
v 0.580000 0.250100 0.406400
v 0.955000 0.656300 0.406400
v 0.580000 0.656300 0.406400
v 0.580000 0.656300 0.531400
v 0.955000 0.656300 0.531400
vt 0.858900 0.982900
vt 0.891300 0.982900
vt 0.858900 0.892000
vt 0.891300 0.892000
vt 0.891700 0.981800
vt 0.891700 0.891700
vt 0.859700 0.981800
vt 0.859700 0.891700
vt 0.951000 0.790400
vt 0.859300 0.790400
vt 0.951000 0.889800
vt 0.859300 0.889800
vt 0.859300 0.890600
vt 0.828200 0.890600
vt 0.859300 0.789200
vt 0.828200 0.789200
vt 0.736500 0.890000
vt 0.828200 0.890000
vt 0.736500 0.790700
vt 0.828200 0.790700
vt 0.952900 0.890600
vt 0.984000 0.890600
vt 0.952900 0.789300
vt 0.984000 0.789300
vn 0.000000 -1.000000 0.000000
vn 0.000000 1.000000 0.000000
vn 0.000000 0.000000 -1.000000
vn -1.000000 0.000000 0.000000
vn 0.000000 -0.000000 1.000000
vn 1.000000 0.000000 0.000000
usemtl books

f 121/237/61 122/238/61 124/239/61
f 122/238/61 123/240/61 124/239/61
f 125/241/62 126/242/62 128/243/62
f 126/242/62 127/244/62 128/243/62
f 121/245/63 124/246/63 125/247/63
f 124/246/63 126/248/63 125/247/63
f 124/249/64 123/250/64 126/251/64
f 123/250/64 127/252/64 126/251/64
f 123/253/65 122/254/65 127/255/65
f 122/254/65 128/256/65 127/255/65
f 122/257/66 121/258/66 128/259/66
f 121/258/66 125/260/66 128/259/66
